G75*
%MOIN*%
%OFA0B0*%
%FSLAX25Y25*%
%IPPOS*%
%LPD*%
%AMOC8*
5,1,8,0,0,1.08239X$1,22.5*
%
%ADD10C,0.00800*%
%ADD11C,0.00500*%
%ADD12C,0.00600*%
%ADD13C,0.00400*%
%ADD14C,0.00000*%
D10*
X0001400Y0001400D02*
X0321400Y0001400D01*
X0321400Y0121400D01*
X0001400Y0121400D01*
X0001400Y0001400D01*
X0140100Y0098300D02*
X0142800Y0098300D01*
D11*
X0097896Y0071400D02*
X0097896Y0051400D01*
X0097896Y0031400D02*
X0097896Y0011400D01*
X0014904Y0011400D01*
X0014904Y0031400D01*
X0014904Y0051400D02*
X0014904Y0071400D01*
X0097896Y0071400D01*
D12*
X0097511Y0068603D02*
X0093238Y0068603D01*
X0095374Y0068603D02*
X0095374Y0062194D01*
X0093238Y0064331D01*
X0091062Y0062194D02*
X0086789Y0062194D01*
X0088926Y0062194D02*
X0088926Y0068603D01*
X0084613Y0067535D02*
X0083545Y0068603D01*
X0080341Y0068603D01*
X0080341Y0062194D01*
X0083545Y0062194D01*
X0084613Y0063262D01*
X0084613Y0064331D01*
X0083545Y0065399D01*
X0080341Y0065399D01*
X0083545Y0065399D02*
X0084613Y0066467D01*
X0084613Y0067535D01*
D13*
X0029176Y0082367D02*
X0026107Y0082367D01*
D14*
X0113447Y0052542D02*
X0113449Y0052650D01*
X0113455Y0052759D01*
X0113465Y0052867D01*
X0113479Y0052974D01*
X0113497Y0053081D01*
X0113518Y0053188D01*
X0113544Y0053293D01*
X0113574Y0053398D01*
X0113607Y0053501D01*
X0113644Y0053603D01*
X0113685Y0053703D01*
X0113729Y0053802D01*
X0113778Y0053900D01*
X0113829Y0053995D01*
X0113884Y0054088D01*
X0113943Y0054180D01*
X0114005Y0054269D01*
X0114070Y0054356D01*
X0114138Y0054440D01*
X0114209Y0054522D01*
X0114283Y0054601D01*
X0114360Y0054677D01*
X0114440Y0054751D01*
X0114523Y0054821D01*
X0114608Y0054889D01*
X0114695Y0054953D01*
X0114785Y0055014D01*
X0114877Y0055072D01*
X0114971Y0055126D01*
X0115067Y0055177D01*
X0115164Y0055224D01*
X0115264Y0055268D01*
X0115365Y0055308D01*
X0115467Y0055344D01*
X0115570Y0055376D01*
X0115675Y0055405D01*
X0115781Y0055429D01*
X0115887Y0055450D01*
X0115994Y0055467D01*
X0116102Y0055480D01*
X0116210Y0055489D01*
X0116319Y0055494D01*
X0116427Y0055495D01*
X0116536Y0055492D01*
X0116644Y0055485D01*
X0116752Y0055474D01*
X0116859Y0055459D01*
X0116966Y0055440D01*
X0117072Y0055417D01*
X0117177Y0055391D01*
X0117282Y0055360D01*
X0117384Y0055326D01*
X0117486Y0055288D01*
X0117586Y0055246D01*
X0117685Y0055201D01*
X0117782Y0055152D01*
X0117876Y0055099D01*
X0117969Y0055043D01*
X0118060Y0054984D01*
X0118149Y0054921D01*
X0118235Y0054856D01*
X0118319Y0054787D01*
X0118400Y0054715D01*
X0118478Y0054640D01*
X0118554Y0054562D01*
X0118627Y0054481D01*
X0118697Y0054398D01*
X0118763Y0054313D01*
X0118827Y0054225D01*
X0118887Y0054134D01*
X0118944Y0054042D01*
X0118997Y0053947D01*
X0119047Y0053851D01*
X0119093Y0053753D01*
X0119136Y0053653D01*
X0119175Y0053552D01*
X0119210Y0053449D01*
X0119242Y0053346D01*
X0119269Y0053241D01*
X0119293Y0053135D01*
X0119313Y0053028D01*
X0119329Y0052921D01*
X0119341Y0052813D01*
X0119349Y0052705D01*
X0119353Y0052596D01*
X0119353Y0052488D01*
X0119349Y0052379D01*
X0119341Y0052271D01*
X0119329Y0052163D01*
X0119313Y0052056D01*
X0119293Y0051949D01*
X0119269Y0051843D01*
X0119242Y0051738D01*
X0119210Y0051635D01*
X0119175Y0051532D01*
X0119136Y0051431D01*
X0119093Y0051331D01*
X0119047Y0051233D01*
X0118997Y0051137D01*
X0118944Y0051042D01*
X0118887Y0050950D01*
X0118827Y0050859D01*
X0118763Y0050771D01*
X0118697Y0050686D01*
X0118627Y0050603D01*
X0118554Y0050522D01*
X0118478Y0050444D01*
X0118400Y0050369D01*
X0118319Y0050297D01*
X0118235Y0050228D01*
X0118149Y0050163D01*
X0118060Y0050100D01*
X0117969Y0050041D01*
X0117877Y0049985D01*
X0117782Y0049932D01*
X0117685Y0049883D01*
X0117586Y0049838D01*
X0117486Y0049796D01*
X0117384Y0049758D01*
X0117282Y0049724D01*
X0117177Y0049693D01*
X0117072Y0049667D01*
X0116966Y0049644D01*
X0116859Y0049625D01*
X0116752Y0049610D01*
X0116644Y0049599D01*
X0116536Y0049592D01*
X0116427Y0049589D01*
X0116319Y0049590D01*
X0116210Y0049595D01*
X0116102Y0049604D01*
X0115994Y0049617D01*
X0115887Y0049634D01*
X0115781Y0049655D01*
X0115675Y0049679D01*
X0115570Y0049708D01*
X0115467Y0049740D01*
X0115365Y0049776D01*
X0115264Y0049816D01*
X0115164Y0049860D01*
X0115067Y0049907D01*
X0114971Y0049958D01*
X0114877Y0050012D01*
X0114785Y0050070D01*
X0114695Y0050131D01*
X0114608Y0050195D01*
X0114523Y0050263D01*
X0114440Y0050333D01*
X0114360Y0050407D01*
X0114283Y0050483D01*
X0114209Y0050562D01*
X0114138Y0050644D01*
X0114070Y0050728D01*
X0114005Y0050815D01*
X0113943Y0050904D01*
X0113884Y0050996D01*
X0113829Y0051089D01*
X0113778Y0051184D01*
X0113729Y0051282D01*
X0113685Y0051381D01*
X0113644Y0051481D01*
X0113607Y0051583D01*
X0113574Y0051686D01*
X0113544Y0051791D01*
X0113518Y0051896D01*
X0113497Y0052003D01*
X0113479Y0052110D01*
X0113465Y0052217D01*
X0113455Y0052325D01*
X0113449Y0052434D01*
X0113447Y0052542D01*
X0113447Y0020258D02*
X0113449Y0020366D01*
X0113455Y0020475D01*
X0113465Y0020583D01*
X0113479Y0020690D01*
X0113497Y0020797D01*
X0113518Y0020904D01*
X0113544Y0021009D01*
X0113574Y0021114D01*
X0113607Y0021217D01*
X0113644Y0021319D01*
X0113685Y0021419D01*
X0113729Y0021518D01*
X0113778Y0021616D01*
X0113829Y0021711D01*
X0113884Y0021804D01*
X0113943Y0021896D01*
X0114005Y0021985D01*
X0114070Y0022072D01*
X0114138Y0022156D01*
X0114209Y0022238D01*
X0114283Y0022317D01*
X0114360Y0022393D01*
X0114440Y0022467D01*
X0114523Y0022537D01*
X0114608Y0022605D01*
X0114695Y0022669D01*
X0114785Y0022730D01*
X0114877Y0022788D01*
X0114971Y0022842D01*
X0115067Y0022893D01*
X0115164Y0022940D01*
X0115264Y0022984D01*
X0115365Y0023024D01*
X0115467Y0023060D01*
X0115570Y0023092D01*
X0115675Y0023121D01*
X0115781Y0023145D01*
X0115887Y0023166D01*
X0115994Y0023183D01*
X0116102Y0023196D01*
X0116210Y0023205D01*
X0116319Y0023210D01*
X0116427Y0023211D01*
X0116536Y0023208D01*
X0116644Y0023201D01*
X0116752Y0023190D01*
X0116859Y0023175D01*
X0116966Y0023156D01*
X0117072Y0023133D01*
X0117177Y0023107D01*
X0117282Y0023076D01*
X0117384Y0023042D01*
X0117486Y0023004D01*
X0117586Y0022962D01*
X0117685Y0022917D01*
X0117782Y0022868D01*
X0117876Y0022815D01*
X0117969Y0022759D01*
X0118060Y0022700D01*
X0118149Y0022637D01*
X0118235Y0022572D01*
X0118319Y0022503D01*
X0118400Y0022431D01*
X0118478Y0022356D01*
X0118554Y0022278D01*
X0118627Y0022197D01*
X0118697Y0022114D01*
X0118763Y0022029D01*
X0118827Y0021941D01*
X0118887Y0021850D01*
X0118944Y0021758D01*
X0118997Y0021663D01*
X0119047Y0021567D01*
X0119093Y0021469D01*
X0119136Y0021369D01*
X0119175Y0021268D01*
X0119210Y0021165D01*
X0119242Y0021062D01*
X0119269Y0020957D01*
X0119293Y0020851D01*
X0119313Y0020744D01*
X0119329Y0020637D01*
X0119341Y0020529D01*
X0119349Y0020421D01*
X0119353Y0020312D01*
X0119353Y0020204D01*
X0119349Y0020095D01*
X0119341Y0019987D01*
X0119329Y0019879D01*
X0119313Y0019772D01*
X0119293Y0019665D01*
X0119269Y0019559D01*
X0119242Y0019454D01*
X0119210Y0019351D01*
X0119175Y0019248D01*
X0119136Y0019147D01*
X0119093Y0019047D01*
X0119047Y0018949D01*
X0118997Y0018853D01*
X0118944Y0018758D01*
X0118887Y0018666D01*
X0118827Y0018575D01*
X0118763Y0018487D01*
X0118697Y0018402D01*
X0118627Y0018319D01*
X0118554Y0018238D01*
X0118478Y0018160D01*
X0118400Y0018085D01*
X0118319Y0018013D01*
X0118235Y0017944D01*
X0118149Y0017879D01*
X0118060Y0017816D01*
X0117969Y0017757D01*
X0117877Y0017701D01*
X0117782Y0017648D01*
X0117685Y0017599D01*
X0117586Y0017554D01*
X0117486Y0017512D01*
X0117384Y0017474D01*
X0117282Y0017440D01*
X0117177Y0017409D01*
X0117072Y0017383D01*
X0116966Y0017360D01*
X0116859Y0017341D01*
X0116752Y0017326D01*
X0116644Y0017315D01*
X0116536Y0017308D01*
X0116427Y0017305D01*
X0116319Y0017306D01*
X0116210Y0017311D01*
X0116102Y0017320D01*
X0115994Y0017333D01*
X0115887Y0017350D01*
X0115781Y0017371D01*
X0115675Y0017395D01*
X0115570Y0017424D01*
X0115467Y0017456D01*
X0115365Y0017492D01*
X0115264Y0017532D01*
X0115164Y0017576D01*
X0115067Y0017623D01*
X0114971Y0017674D01*
X0114877Y0017728D01*
X0114785Y0017786D01*
X0114695Y0017847D01*
X0114608Y0017911D01*
X0114523Y0017979D01*
X0114440Y0018049D01*
X0114360Y0018123D01*
X0114283Y0018199D01*
X0114209Y0018278D01*
X0114138Y0018360D01*
X0114070Y0018444D01*
X0114005Y0018531D01*
X0113943Y0018620D01*
X0113884Y0018712D01*
X0113829Y0018805D01*
X0113778Y0018900D01*
X0113729Y0018998D01*
X0113685Y0019097D01*
X0113644Y0019197D01*
X0113607Y0019299D01*
X0113574Y0019402D01*
X0113544Y0019507D01*
X0113518Y0019612D01*
X0113497Y0019719D01*
X0113479Y0019826D01*
X0113465Y0019933D01*
X0113455Y0020041D01*
X0113449Y0020150D01*
X0113447Y0020258D01*
M02*
