%
M48
M72
T01C0.0200
T02C0.0315
T03C0.0320
T04C0.0591
T05C0.0787
%
T01
X17140Y6640
X17140Y8140
X16140Y10140
X15140Y10140
X14140Y10140
X14140Y11140
X15140Y11140
X16140Y11140
T02
X2353Y9640
X2353Y8640
X11640Y4427
X11640Y3640
X11640Y2853
T03
X13640Y2640
X13640Y1640
X16640Y1640
X18140Y1140
X18140Y2140
X16640Y2640
X18140Y3140
X16640Y3640
X18140Y4140
X16640Y4640
X18140Y5140
X18140Y6140
X16140Y6140
X14640Y6140
X13140Y6140
X13640Y4640
X13640Y3640
X21140Y3140
X23140Y3140
X23140Y2140
X21140Y2140
X21140Y1140
X23140Y1140
X26140Y1140
X28140Y1140
X28140Y2140
X26140Y2140
X26140Y3140
X28140Y3140
X28140Y4140
X26140Y4140
X26140Y5140
X28140Y5140
X28140Y6140
X26140Y6140
X26140Y7140
X28140Y7140
X28140Y8140
X26140Y8140
X26140Y9140
X28140Y9140
X28140Y10140
X26140Y10140
X23140Y10140
X21140Y10140
X21140Y9140
X23140Y9140
X23140Y8140
X21140Y8140
X21140Y7140
X23140Y7140
X23140Y6140
X21140Y6140
X21140Y5140
X23140Y5140
X23140Y4140
X21140Y4140
X18140Y7140
X18140Y8140
X18140Y9140
X16140Y9140
X14640Y9140
X13140Y9140
X11140Y9640
X10140Y9640
X7640Y8140
X6140Y8140
X6140Y11140
X7640Y11140
X18140Y10140
X31140Y10140
X31140Y9140
X31140Y8140
X31140Y7140
X31140Y6140
X31140Y5140
X31140Y4140
X31140Y3140
X31140Y2140
X31140Y1140
T04
X11640Y2026
X11640Y5254
T05
X1388Y4140
X9892Y4140
M30
