G75*
%MOIN*%
%OFA0B0*%
%FSLAX25Y25*%
%IPPOS*%
%LPD*%
%AMOC8*
5,1,8,0,0,1.08239X$1,22.5*
%
%ADD10C,0.06400*%
%ADD11OC8,0.06400*%
%ADD12C,0.07200*%
%ADD13C,0.12611*%
%ADD14R,0.16391X0.16391*%
%ADD15C,0.07400*%
%ADD16R,0.06350X0.06350*%
%ADD17C,0.06350*%
%ADD18C,0.06706*%
%ADD19OC8,0.07100*%
%ADD20C,0.07100*%
D10*
X0178600Y0011400D02*
X0184200Y0011400D01*
X0208600Y0011400D02*
X0214200Y0011400D01*
X0228600Y0011400D02*
X0234200Y0011400D01*
X0234200Y0021400D02*
X0228600Y0021400D01*
X0214200Y0021400D02*
X0208600Y0021400D01*
X0184200Y0021400D02*
X0178600Y0021400D01*
X0178600Y0031400D02*
X0184200Y0031400D01*
X0208600Y0031400D02*
X0214200Y0031400D01*
X0228600Y0031400D02*
X0234200Y0031400D01*
X0234200Y0041400D02*
X0228600Y0041400D01*
X0214200Y0041400D02*
X0208600Y0041400D01*
X0184200Y0041400D02*
X0178600Y0041400D01*
X0178600Y0051400D02*
X0184200Y0051400D01*
X0208600Y0051400D02*
X0214200Y0051400D01*
X0228600Y0051400D02*
X0234200Y0051400D01*
X0258600Y0051400D02*
X0264200Y0051400D01*
X0264200Y0041400D02*
X0258600Y0041400D01*
X0258600Y0031400D02*
X0264200Y0031400D01*
X0264200Y0021400D02*
X0258600Y0021400D01*
X0258600Y0011400D02*
X0264200Y0011400D01*
X0264200Y0061400D02*
X0258600Y0061400D01*
X0258600Y0071400D02*
X0264200Y0071400D01*
X0264200Y0081400D02*
X0258600Y0081400D01*
X0258600Y0091400D02*
X0264200Y0091400D01*
X0264200Y0101400D02*
X0258600Y0101400D01*
X0234200Y0101400D02*
X0228600Y0101400D01*
X0214200Y0101400D02*
X0208600Y0101400D01*
X0184200Y0101400D02*
X0178600Y0101400D01*
X0178600Y0091400D02*
X0184200Y0091400D01*
X0208600Y0091400D02*
X0214200Y0091400D01*
X0228600Y0091400D02*
X0234200Y0091400D01*
X0234200Y0081400D02*
X0228600Y0081400D01*
X0214200Y0081400D02*
X0208600Y0081400D01*
X0184200Y0081400D02*
X0178600Y0081400D01*
X0178600Y0071400D02*
X0184200Y0071400D01*
X0208600Y0071400D02*
X0214200Y0071400D01*
X0228600Y0071400D02*
X0234200Y0071400D01*
X0234200Y0061400D02*
X0228600Y0061400D01*
X0214200Y0061400D02*
X0208600Y0061400D01*
X0184200Y0061400D02*
X0178600Y0061400D01*
D11*
X0161400Y0061400D03*
X0146400Y0061400D03*
X0131400Y0061400D03*
X0076400Y0081400D03*
X0061400Y0081400D03*
X0131400Y0091400D03*
X0146400Y0091400D03*
X0161400Y0091400D03*
X0076400Y0111400D03*
X0061400Y0111400D03*
X0281400Y0101400D03*
X0281400Y0091400D03*
X0281400Y0081400D03*
X0281400Y0071400D03*
X0281400Y0061400D03*
X0281400Y0051400D03*
X0281400Y0041400D03*
X0281400Y0031400D03*
X0281400Y0021400D03*
X0281400Y0011400D03*
X0311400Y0011400D03*
X0311400Y0021400D03*
X0311400Y0031400D03*
X0311400Y0041400D03*
X0311400Y0051400D03*
X0311400Y0061400D03*
X0311400Y0071400D03*
X0311400Y0081400D03*
X0311400Y0091400D03*
X0311400Y0101400D03*
D12*
X0166400Y0046400D03*
X0166400Y0036400D03*
X0166400Y0026400D03*
X0166400Y0016400D03*
X0136400Y0016400D03*
X0136400Y0026400D03*
X0136400Y0036400D03*
X0136400Y0046400D03*
D13*
X0013880Y0041400D03*
X0098920Y0041400D03*
D14*
X0056400Y0041400D03*
D15*
X0023526Y0086400D03*
X0023526Y0096400D03*
D16*
X0116400Y0044274D03*
D17*
X0116400Y0036400D03*
X0116400Y0028526D03*
D18*
X0116400Y0020258D03*
X0116400Y0052542D03*
D19*
X0111400Y0096400D03*
D20*
X0101400Y0096400D03*
M02*
