G75*
%MOIN*%
%OFA0B0*%
%FSLAX25Y25*%
%IPPOS*%
%LPD*%
%AMOC8*
5,1,8,0,0,1.08239X$1,22.5*
%
%ADD10C,0.00800*%
%ADD11R,0.05000X0.25000*%
%ADD12R,0.05000X0.15000*%
%ADD13R,0.05000X0.17500*%
%ADD14R,0.05000X0.05000*%
%ADD15R,0.12500X0.05000*%
%ADD16C,0.00400*%
%ADD17C,0.00600*%
%ADD18C,0.00500*%
%ADD19C,0.01600*%
%ADD20C,0.00700*%
%ADD21C,0.00300*%
%ADD22C,0.00787*%
%ADD23C,0.00000*%
%ADD24C,0.00200*%
D10*
X0001400Y0001400D02*
X0321400Y0001400D01*
X0321400Y0121400D01*
X0001400Y0121400D01*
X0001400Y0001400D01*
X0141400Y0011400D02*
X0161400Y0011400D01*
X0161400Y0051400D01*
X0155400Y0051400D01*
X0155398Y0051274D01*
X0155392Y0051149D01*
X0155382Y0051024D01*
X0155368Y0050899D01*
X0155351Y0050774D01*
X0155329Y0050650D01*
X0155304Y0050527D01*
X0155274Y0050405D01*
X0155241Y0050284D01*
X0155204Y0050164D01*
X0155164Y0050045D01*
X0155119Y0049928D01*
X0155071Y0049811D01*
X0155019Y0049697D01*
X0154964Y0049584D01*
X0154905Y0049473D01*
X0154843Y0049364D01*
X0154777Y0049257D01*
X0154708Y0049152D01*
X0154636Y0049049D01*
X0154561Y0048948D01*
X0154482Y0048850D01*
X0154400Y0048755D01*
X0154316Y0048662D01*
X0154228Y0048572D01*
X0154138Y0048484D01*
X0154045Y0048400D01*
X0153950Y0048318D01*
X0153852Y0048239D01*
X0153751Y0048164D01*
X0153648Y0048092D01*
X0153543Y0048023D01*
X0153436Y0047957D01*
X0153327Y0047895D01*
X0153216Y0047836D01*
X0153103Y0047781D01*
X0152989Y0047729D01*
X0152872Y0047681D01*
X0152755Y0047636D01*
X0152636Y0047596D01*
X0152516Y0047559D01*
X0152395Y0047526D01*
X0152273Y0047496D01*
X0152150Y0047471D01*
X0152026Y0047449D01*
X0151901Y0047432D01*
X0151776Y0047418D01*
X0151651Y0047408D01*
X0151526Y0047402D01*
X0151400Y0047400D01*
X0151274Y0047402D01*
X0151149Y0047408D01*
X0151024Y0047418D01*
X0150899Y0047432D01*
X0150774Y0047449D01*
X0150650Y0047471D01*
X0150527Y0047496D01*
X0150405Y0047526D01*
X0150284Y0047559D01*
X0150164Y0047596D01*
X0150045Y0047636D01*
X0149928Y0047681D01*
X0149811Y0047729D01*
X0149697Y0047781D01*
X0149584Y0047836D01*
X0149473Y0047895D01*
X0149364Y0047957D01*
X0149257Y0048023D01*
X0149152Y0048092D01*
X0149049Y0048164D01*
X0148948Y0048239D01*
X0148850Y0048318D01*
X0148755Y0048400D01*
X0148662Y0048484D01*
X0148572Y0048572D01*
X0148484Y0048662D01*
X0148400Y0048755D01*
X0148318Y0048850D01*
X0148239Y0048948D01*
X0148164Y0049049D01*
X0148092Y0049152D01*
X0148023Y0049257D01*
X0147957Y0049364D01*
X0147895Y0049473D01*
X0147836Y0049584D01*
X0147781Y0049697D01*
X0147729Y0049811D01*
X0147681Y0049928D01*
X0147636Y0050045D01*
X0147596Y0050164D01*
X0147559Y0050284D01*
X0147526Y0050405D01*
X0147496Y0050527D01*
X0147471Y0050650D01*
X0147449Y0050774D01*
X0147432Y0050899D01*
X0147418Y0051024D01*
X0147408Y0051149D01*
X0147402Y0051274D01*
X0147400Y0051400D01*
X0141400Y0051400D01*
X0141400Y0011400D01*
X0225150Y0006400D02*
X0267650Y0006400D01*
X0267650Y0106400D01*
X0236400Y0106400D01*
X0225150Y0096400D01*
X0225150Y0006400D01*
X0248900Y0053900D02*
X0248900Y0058900D01*
X0255150Y0056400D02*
X0237650Y0056400D01*
X0142700Y0098300D02*
X0140000Y0098300D01*
X0012306Y0091400D02*
X0012312Y0091869D01*
X0012329Y0092337D01*
X0012358Y0092805D01*
X0012398Y0093272D01*
X0012450Y0093737D01*
X0012513Y0094202D01*
X0012587Y0094664D01*
X0012673Y0095125D01*
X0012770Y0095584D01*
X0012878Y0096039D01*
X0012998Y0096493D01*
X0013128Y0096943D01*
X0013270Y0097389D01*
X0013422Y0097833D01*
X0013585Y0098272D01*
X0013759Y0098707D01*
X0013944Y0099138D01*
X0014139Y0099564D01*
X0014345Y0099985D01*
X0014561Y0100401D01*
X0014787Y0100811D01*
X0015023Y0101216D01*
X0015268Y0101615D01*
X0015524Y0102008D01*
X0015789Y0102394D01*
X0016064Y0102774D01*
X0016347Y0103147D01*
X0016640Y0103513D01*
X0016942Y0103872D01*
X0017252Y0104223D01*
X0017571Y0104566D01*
X0017899Y0104901D01*
X0018234Y0105229D01*
X0018577Y0105548D01*
X0018928Y0105858D01*
X0019287Y0106160D01*
X0019653Y0106453D01*
X0020026Y0106736D01*
X0020406Y0107011D01*
X0020792Y0107276D01*
X0021185Y0107532D01*
X0021584Y0107777D01*
X0021989Y0108013D01*
X0022399Y0108239D01*
X0022815Y0108455D01*
X0023236Y0108661D01*
X0023662Y0108856D01*
X0024093Y0109041D01*
X0024528Y0109215D01*
X0024967Y0109378D01*
X0025411Y0109530D01*
X0025857Y0109672D01*
X0026307Y0109802D01*
X0026761Y0109922D01*
X0027216Y0110030D01*
X0027675Y0110127D01*
X0028136Y0110213D01*
X0028598Y0110287D01*
X0029063Y0110350D01*
X0029528Y0110402D01*
X0029995Y0110442D01*
X0030463Y0110471D01*
X0030931Y0110488D01*
X0031400Y0110494D01*
X0031869Y0110488D01*
X0032337Y0110471D01*
X0032805Y0110442D01*
X0033272Y0110402D01*
X0033737Y0110350D01*
X0034202Y0110287D01*
X0034664Y0110213D01*
X0035125Y0110127D01*
X0035584Y0110030D01*
X0036039Y0109922D01*
X0036493Y0109802D01*
X0036943Y0109672D01*
X0037389Y0109530D01*
X0037833Y0109378D01*
X0038272Y0109215D01*
X0038707Y0109041D01*
X0039138Y0108856D01*
X0039564Y0108661D01*
X0039985Y0108455D01*
X0040401Y0108239D01*
X0040811Y0108013D01*
X0041216Y0107777D01*
X0041615Y0107532D01*
X0042008Y0107276D01*
X0042394Y0107011D01*
X0042774Y0106736D01*
X0043147Y0106453D01*
X0043513Y0106160D01*
X0043872Y0105858D01*
X0044223Y0105548D01*
X0044566Y0105229D01*
X0044901Y0104901D01*
X0045229Y0104566D01*
X0045548Y0104223D01*
X0045858Y0103872D01*
X0046160Y0103513D01*
X0046453Y0103147D01*
X0046736Y0102774D01*
X0047011Y0102394D01*
X0047276Y0102008D01*
X0047532Y0101615D01*
X0047777Y0101216D01*
X0048013Y0100811D01*
X0048239Y0100401D01*
X0048455Y0099985D01*
X0048661Y0099564D01*
X0048856Y0099138D01*
X0049041Y0098707D01*
X0049215Y0098272D01*
X0049378Y0097833D01*
X0049530Y0097389D01*
X0049672Y0096943D01*
X0049802Y0096493D01*
X0049922Y0096039D01*
X0050030Y0095584D01*
X0050127Y0095125D01*
X0050213Y0094664D01*
X0050287Y0094202D01*
X0050350Y0093737D01*
X0050402Y0093272D01*
X0050442Y0092805D01*
X0050471Y0092337D01*
X0050488Y0091869D01*
X0050494Y0091400D01*
X0050488Y0090931D01*
X0050471Y0090463D01*
X0050442Y0089995D01*
X0050402Y0089528D01*
X0050350Y0089063D01*
X0050287Y0088598D01*
X0050213Y0088136D01*
X0050127Y0087675D01*
X0050030Y0087216D01*
X0049922Y0086761D01*
X0049802Y0086307D01*
X0049672Y0085857D01*
X0049530Y0085411D01*
X0049378Y0084967D01*
X0049215Y0084528D01*
X0049041Y0084093D01*
X0048856Y0083662D01*
X0048661Y0083236D01*
X0048455Y0082815D01*
X0048239Y0082399D01*
X0048013Y0081989D01*
X0047777Y0081584D01*
X0047532Y0081185D01*
X0047276Y0080792D01*
X0047011Y0080406D01*
X0046736Y0080026D01*
X0046453Y0079653D01*
X0046160Y0079287D01*
X0045858Y0078928D01*
X0045548Y0078577D01*
X0045229Y0078234D01*
X0044901Y0077899D01*
X0044566Y0077571D01*
X0044223Y0077252D01*
X0043872Y0076942D01*
X0043513Y0076640D01*
X0043147Y0076347D01*
X0042774Y0076064D01*
X0042394Y0075789D01*
X0042008Y0075524D01*
X0041615Y0075268D01*
X0041216Y0075023D01*
X0040811Y0074787D01*
X0040401Y0074561D01*
X0039985Y0074345D01*
X0039564Y0074139D01*
X0039138Y0073944D01*
X0038707Y0073759D01*
X0038272Y0073585D01*
X0037833Y0073422D01*
X0037389Y0073270D01*
X0036943Y0073128D01*
X0036493Y0072998D01*
X0036039Y0072878D01*
X0035584Y0072770D01*
X0035125Y0072673D01*
X0034664Y0072587D01*
X0034202Y0072513D01*
X0033737Y0072450D01*
X0033272Y0072398D01*
X0032805Y0072358D01*
X0032337Y0072329D01*
X0031869Y0072312D01*
X0031400Y0072306D01*
X0030931Y0072312D01*
X0030463Y0072329D01*
X0029995Y0072358D01*
X0029528Y0072398D01*
X0029063Y0072450D01*
X0028598Y0072513D01*
X0028136Y0072587D01*
X0027675Y0072673D01*
X0027216Y0072770D01*
X0026761Y0072878D01*
X0026307Y0072998D01*
X0025857Y0073128D01*
X0025411Y0073270D01*
X0024967Y0073422D01*
X0024528Y0073585D01*
X0024093Y0073759D01*
X0023662Y0073944D01*
X0023236Y0074139D01*
X0022815Y0074345D01*
X0022399Y0074561D01*
X0021989Y0074787D01*
X0021584Y0075023D01*
X0021185Y0075268D01*
X0020792Y0075524D01*
X0020406Y0075789D01*
X0020026Y0076064D01*
X0019653Y0076347D01*
X0019287Y0076640D01*
X0018928Y0076942D01*
X0018577Y0077252D01*
X0018234Y0077571D01*
X0017899Y0077899D01*
X0017571Y0078234D01*
X0017252Y0078577D01*
X0016942Y0078928D01*
X0016640Y0079287D01*
X0016347Y0079653D01*
X0016064Y0080026D01*
X0015789Y0080406D01*
X0015524Y0080792D01*
X0015268Y0081185D01*
X0015023Y0081584D01*
X0014787Y0081989D01*
X0014561Y0082399D01*
X0014345Y0082815D01*
X0014139Y0083236D01*
X0013944Y0083662D01*
X0013759Y0084093D01*
X0013585Y0084528D01*
X0013422Y0084967D01*
X0013270Y0085411D01*
X0013128Y0085857D01*
X0012998Y0086307D01*
X0012878Y0086761D01*
X0012770Y0087216D01*
X0012673Y0087675D01*
X0012587Y0088136D01*
X0012513Y0088598D01*
X0012450Y0089063D01*
X0012398Y0089528D01*
X0012358Y0089995D01*
X0012329Y0090463D01*
X0012312Y0090931D01*
X0012306Y0091400D01*
D11*
X0058900Y0038900D03*
X0073900Y0038900D03*
D12*
X0066400Y0033900D03*
D13*
X0051400Y0042650D03*
X0043900Y0042650D03*
D14*
X0051400Y0028900D03*
D15*
X0040150Y0028900D03*
D16*
X0029213Y0082367D02*
X0026143Y0082367D01*
X0036596Y0086600D02*
X0038131Y0088135D01*
X0036596Y0089669D01*
X0041200Y0089669D01*
X0041200Y0091204D02*
X0041200Y0092739D01*
X0041200Y0091971D02*
X0036596Y0091971D01*
X0036596Y0091204D02*
X0036596Y0092739D01*
X0037363Y0094273D02*
X0040433Y0094273D01*
X0041200Y0095041D01*
X0041200Y0096575D01*
X0040433Y0097342D01*
X0037363Y0097342D02*
X0036596Y0096575D01*
X0036596Y0095041D01*
X0037363Y0094273D01*
X0036596Y0086600D02*
X0041200Y0086600D01*
X0269057Y0113598D02*
X0269925Y0112730D01*
X0271660Y0112730D01*
X0272527Y0113598D01*
X0272527Y0115333D01*
X0271660Y0116200D01*
X0269925Y0116200D01*
X0269057Y0114465D02*
X0272527Y0114465D01*
X0274222Y0112730D02*
X0276824Y0114465D01*
X0274222Y0116200D01*
X0276824Y0116200D02*
X0276824Y0110996D01*
X0279378Y0112730D02*
X0278511Y0113598D01*
X0278511Y0116200D01*
X0281113Y0116200D01*
X0281980Y0115333D01*
X0281113Y0114465D01*
X0278511Y0114465D01*
X0283667Y0116200D02*
X0283667Y0110996D01*
X0285402Y0112730D01*
X0287137Y0110996D01*
X0287137Y0116200D01*
X0293996Y0116200D02*
X0294863Y0115333D01*
X0294863Y0111863D01*
X0295731Y0112730D02*
X0293996Y0112730D01*
X0297418Y0112730D02*
X0300887Y0116200D01*
X0302574Y0114465D02*
X0306044Y0114465D01*
X0306044Y0113598D02*
X0306044Y0115333D01*
X0305176Y0116200D01*
X0303441Y0116200D01*
X0302574Y0114465D02*
X0302574Y0113598D01*
X0303441Y0112730D01*
X0305176Y0112730D01*
X0306044Y0113598D01*
X0300887Y0112730D02*
X0297418Y0116200D01*
X0307730Y0116200D02*
X0307730Y0110996D01*
X0311200Y0110996D02*
X0307730Y0116200D01*
X0311200Y0116200D02*
X0311200Y0110996D01*
X0281113Y0112730D02*
X0279378Y0112730D01*
X0269057Y0113598D02*
X0269057Y0114465D01*
D17*
X0284900Y0105900D02*
X0286400Y0105900D01*
X0286900Y0105400D01*
X0305900Y0105400D01*
X0306400Y0105900D01*
X0307900Y0105900D01*
X0307960Y0105898D01*
X0308021Y0105893D01*
X0308080Y0105884D01*
X0308139Y0105871D01*
X0308198Y0105855D01*
X0308255Y0105835D01*
X0308310Y0105812D01*
X0308365Y0105785D01*
X0308417Y0105756D01*
X0308468Y0105723D01*
X0308517Y0105687D01*
X0308563Y0105649D01*
X0308607Y0105607D01*
X0308649Y0105563D01*
X0308687Y0105517D01*
X0308723Y0105468D01*
X0308756Y0105417D01*
X0308785Y0105365D01*
X0308812Y0105310D01*
X0308835Y0105255D01*
X0308855Y0105198D01*
X0308871Y0105139D01*
X0308884Y0105080D01*
X0308893Y0105021D01*
X0308898Y0104960D01*
X0308900Y0104900D01*
X0308900Y0097900D02*
X0308898Y0097840D01*
X0308893Y0097779D01*
X0308884Y0097720D01*
X0308871Y0097661D01*
X0308855Y0097602D01*
X0308835Y0097545D01*
X0308812Y0097490D01*
X0308785Y0097435D01*
X0308756Y0097383D01*
X0308723Y0097332D01*
X0308687Y0097283D01*
X0308649Y0097237D01*
X0308607Y0097193D01*
X0308563Y0097151D01*
X0308517Y0097113D01*
X0308468Y0097077D01*
X0308417Y0097044D01*
X0308365Y0097015D01*
X0308310Y0096988D01*
X0308255Y0096965D01*
X0308198Y0096945D01*
X0308139Y0096929D01*
X0308080Y0096916D01*
X0308021Y0096907D01*
X0307960Y0096902D01*
X0307900Y0096900D01*
X0306400Y0096900D01*
X0305900Y0097400D01*
X0286900Y0097400D01*
X0286400Y0096900D01*
X0284900Y0096900D01*
X0284900Y0095900D02*
X0286400Y0095900D01*
X0286900Y0095400D01*
X0305900Y0095400D01*
X0306400Y0095900D01*
X0307900Y0095900D01*
X0307960Y0095898D01*
X0308021Y0095893D01*
X0308080Y0095884D01*
X0308139Y0095871D01*
X0308198Y0095855D01*
X0308255Y0095835D01*
X0308310Y0095812D01*
X0308365Y0095785D01*
X0308417Y0095756D01*
X0308468Y0095723D01*
X0308517Y0095687D01*
X0308563Y0095649D01*
X0308607Y0095607D01*
X0308649Y0095563D01*
X0308687Y0095517D01*
X0308723Y0095468D01*
X0308756Y0095417D01*
X0308785Y0095365D01*
X0308812Y0095310D01*
X0308835Y0095255D01*
X0308855Y0095198D01*
X0308871Y0095139D01*
X0308884Y0095080D01*
X0308893Y0095021D01*
X0308898Y0094960D01*
X0308900Y0094900D01*
X0308900Y0087900D02*
X0308898Y0087840D01*
X0308893Y0087779D01*
X0308884Y0087720D01*
X0308871Y0087661D01*
X0308855Y0087602D01*
X0308835Y0087545D01*
X0308812Y0087490D01*
X0308785Y0087435D01*
X0308756Y0087383D01*
X0308723Y0087332D01*
X0308687Y0087283D01*
X0308649Y0087237D01*
X0308607Y0087193D01*
X0308563Y0087151D01*
X0308517Y0087113D01*
X0308468Y0087077D01*
X0308417Y0087044D01*
X0308365Y0087015D01*
X0308310Y0086988D01*
X0308255Y0086965D01*
X0308198Y0086945D01*
X0308139Y0086929D01*
X0308080Y0086916D01*
X0308021Y0086907D01*
X0307960Y0086902D01*
X0307900Y0086900D01*
X0306400Y0086900D01*
X0305900Y0087400D01*
X0286900Y0087400D01*
X0286400Y0086900D01*
X0284900Y0086900D01*
X0284900Y0085900D02*
X0286400Y0085900D01*
X0286900Y0085400D01*
X0305900Y0085400D01*
X0306400Y0085900D01*
X0307900Y0085900D01*
X0307960Y0085898D01*
X0308021Y0085893D01*
X0308080Y0085884D01*
X0308139Y0085871D01*
X0308198Y0085855D01*
X0308255Y0085835D01*
X0308310Y0085812D01*
X0308365Y0085785D01*
X0308417Y0085756D01*
X0308468Y0085723D01*
X0308517Y0085687D01*
X0308563Y0085649D01*
X0308607Y0085607D01*
X0308649Y0085563D01*
X0308687Y0085517D01*
X0308723Y0085468D01*
X0308756Y0085417D01*
X0308785Y0085365D01*
X0308812Y0085310D01*
X0308835Y0085255D01*
X0308855Y0085198D01*
X0308871Y0085139D01*
X0308884Y0085080D01*
X0308893Y0085021D01*
X0308898Y0084960D01*
X0308900Y0084900D01*
X0308900Y0077900D02*
X0308898Y0077840D01*
X0308893Y0077779D01*
X0308884Y0077720D01*
X0308871Y0077661D01*
X0308855Y0077602D01*
X0308835Y0077545D01*
X0308812Y0077490D01*
X0308785Y0077435D01*
X0308756Y0077383D01*
X0308723Y0077332D01*
X0308687Y0077283D01*
X0308649Y0077237D01*
X0308607Y0077193D01*
X0308563Y0077151D01*
X0308517Y0077113D01*
X0308468Y0077077D01*
X0308417Y0077044D01*
X0308365Y0077015D01*
X0308310Y0076988D01*
X0308255Y0076965D01*
X0308198Y0076945D01*
X0308139Y0076929D01*
X0308080Y0076916D01*
X0308021Y0076907D01*
X0307960Y0076902D01*
X0307900Y0076900D01*
X0306400Y0076900D01*
X0305900Y0077400D01*
X0286900Y0077400D01*
X0286400Y0076900D01*
X0284900Y0076900D01*
X0284900Y0075900D02*
X0286400Y0075900D01*
X0286900Y0075400D01*
X0305900Y0075400D01*
X0306400Y0075900D01*
X0307900Y0075900D01*
X0307960Y0075898D01*
X0308021Y0075893D01*
X0308080Y0075884D01*
X0308139Y0075871D01*
X0308198Y0075855D01*
X0308255Y0075835D01*
X0308310Y0075812D01*
X0308365Y0075785D01*
X0308417Y0075756D01*
X0308468Y0075723D01*
X0308517Y0075687D01*
X0308563Y0075649D01*
X0308607Y0075607D01*
X0308649Y0075563D01*
X0308687Y0075517D01*
X0308723Y0075468D01*
X0308756Y0075417D01*
X0308785Y0075365D01*
X0308812Y0075310D01*
X0308835Y0075255D01*
X0308855Y0075198D01*
X0308871Y0075139D01*
X0308884Y0075080D01*
X0308893Y0075021D01*
X0308898Y0074960D01*
X0308900Y0074900D01*
X0308900Y0067900D02*
X0308898Y0067840D01*
X0308893Y0067779D01*
X0308884Y0067720D01*
X0308871Y0067661D01*
X0308855Y0067602D01*
X0308835Y0067545D01*
X0308812Y0067490D01*
X0308785Y0067435D01*
X0308756Y0067383D01*
X0308723Y0067332D01*
X0308687Y0067283D01*
X0308649Y0067237D01*
X0308607Y0067193D01*
X0308563Y0067151D01*
X0308517Y0067113D01*
X0308468Y0067077D01*
X0308417Y0067044D01*
X0308365Y0067015D01*
X0308310Y0066988D01*
X0308255Y0066965D01*
X0308198Y0066945D01*
X0308139Y0066929D01*
X0308080Y0066916D01*
X0308021Y0066907D01*
X0307960Y0066902D01*
X0307900Y0066900D01*
X0306400Y0066900D01*
X0305900Y0067400D01*
X0286900Y0067400D01*
X0286400Y0066900D01*
X0284900Y0066900D01*
X0284900Y0065900D02*
X0286400Y0065900D01*
X0286900Y0065400D01*
X0305900Y0065400D01*
X0306400Y0065900D01*
X0307900Y0065900D01*
X0307960Y0065898D01*
X0308021Y0065893D01*
X0308080Y0065884D01*
X0308139Y0065871D01*
X0308198Y0065855D01*
X0308255Y0065835D01*
X0308310Y0065812D01*
X0308365Y0065785D01*
X0308417Y0065756D01*
X0308468Y0065723D01*
X0308517Y0065687D01*
X0308563Y0065649D01*
X0308607Y0065607D01*
X0308649Y0065563D01*
X0308687Y0065517D01*
X0308723Y0065468D01*
X0308756Y0065417D01*
X0308785Y0065365D01*
X0308812Y0065310D01*
X0308835Y0065255D01*
X0308855Y0065198D01*
X0308871Y0065139D01*
X0308884Y0065080D01*
X0308893Y0065021D01*
X0308898Y0064960D01*
X0308900Y0064900D01*
X0308900Y0057900D02*
X0308898Y0057840D01*
X0308893Y0057779D01*
X0308884Y0057720D01*
X0308871Y0057661D01*
X0308855Y0057602D01*
X0308835Y0057545D01*
X0308812Y0057490D01*
X0308785Y0057435D01*
X0308756Y0057383D01*
X0308723Y0057332D01*
X0308687Y0057283D01*
X0308649Y0057237D01*
X0308607Y0057193D01*
X0308563Y0057151D01*
X0308517Y0057113D01*
X0308468Y0057077D01*
X0308417Y0057044D01*
X0308365Y0057015D01*
X0308310Y0056988D01*
X0308255Y0056965D01*
X0308198Y0056945D01*
X0308139Y0056929D01*
X0308080Y0056916D01*
X0308021Y0056907D01*
X0307960Y0056902D01*
X0307900Y0056900D01*
X0306400Y0056900D01*
X0305900Y0057400D01*
X0286900Y0057400D01*
X0286400Y0056900D01*
X0284900Y0056900D01*
X0284900Y0055900D02*
X0286400Y0055900D01*
X0286900Y0055400D01*
X0305900Y0055400D01*
X0306400Y0055900D01*
X0307900Y0055900D01*
X0307960Y0055898D01*
X0308021Y0055893D01*
X0308080Y0055884D01*
X0308139Y0055871D01*
X0308198Y0055855D01*
X0308255Y0055835D01*
X0308310Y0055812D01*
X0308365Y0055785D01*
X0308417Y0055756D01*
X0308468Y0055723D01*
X0308517Y0055687D01*
X0308563Y0055649D01*
X0308607Y0055607D01*
X0308649Y0055563D01*
X0308687Y0055517D01*
X0308723Y0055468D01*
X0308756Y0055417D01*
X0308785Y0055365D01*
X0308812Y0055310D01*
X0308835Y0055255D01*
X0308855Y0055198D01*
X0308871Y0055139D01*
X0308884Y0055080D01*
X0308893Y0055021D01*
X0308898Y0054960D01*
X0308900Y0054900D01*
X0308900Y0047900D02*
X0308898Y0047840D01*
X0308893Y0047779D01*
X0308884Y0047720D01*
X0308871Y0047661D01*
X0308855Y0047602D01*
X0308835Y0047545D01*
X0308812Y0047490D01*
X0308785Y0047435D01*
X0308756Y0047383D01*
X0308723Y0047332D01*
X0308687Y0047283D01*
X0308649Y0047237D01*
X0308607Y0047193D01*
X0308563Y0047151D01*
X0308517Y0047113D01*
X0308468Y0047077D01*
X0308417Y0047044D01*
X0308365Y0047015D01*
X0308310Y0046988D01*
X0308255Y0046965D01*
X0308198Y0046945D01*
X0308139Y0046929D01*
X0308080Y0046916D01*
X0308021Y0046907D01*
X0307960Y0046902D01*
X0307900Y0046900D01*
X0306400Y0046900D01*
X0305900Y0047400D01*
X0286900Y0047400D01*
X0286400Y0046900D01*
X0284900Y0046900D01*
X0284900Y0045900D02*
X0286400Y0045900D01*
X0286900Y0045400D01*
X0305900Y0045400D01*
X0306400Y0045900D01*
X0307900Y0045900D01*
X0307960Y0045898D01*
X0308021Y0045893D01*
X0308080Y0045884D01*
X0308139Y0045871D01*
X0308198Y0045855D01*
X0308255Y0045835D01*
X0308310Y0045812D01*
X0308365Y0045785D01*
X0308417Y0045756D01*
X0308468Y0045723D01*
X0308517Y0045687D01*
X0308563Y0045649D01*
X0308607Y0045607D01*
X0308649Y0045563D01*
X0308687Y0045517D01*
X0308723Y0045468D01*
X0308756Y0045417D01*
X0308785Y0045365D01*
X0308812Y0045310D01*
X0308835Y0045255D01*
X0308855Y0045198D01*
X0308871Y0045139D01*
X0308884Y0045080D01*
X0308893Y0045021D01*
X0308898Y0044960D01*
X0308900Y0044900D01*
X0308900Y0037900D02*
X0308898Y0037840D01*
X0308893Y0037779D01*
X0308884Y0037720D01*
X0308871Y0037661D01*
X0308855Y0037602D01*
X0308835Y0037545D01*
X0308812Y0037490D01*
X0308785Y0037435D01*
X0308756Y0037383D01*
X0308723Y0037332D01*
X0308687Y0037283D01*
X0308649Y0037237D01*
X0308607Y0037193D01*
X0308563Y0037151D01*
X0308517Y0037113D01*
X0308468Y0037077D01*
X0308417Y0037044D01*
X0308365Y0037015D01*
X0308310Y0036988D01*
X0308255Y0036965D01*
X0308198Y0036945D01*
X0308139Y0036929D01*
X0308080Y0036916D01*
X0308021Y0036907D01*
X0307960Y0036902D01*
X0307900Y0036900D01*
X0306400Y0036900D01*
X0305900Y0037400D01*
X0286900Y0037400D01*
X0286400Y0036900D01*
X0284900Y0036900D01*
X0284840Y0036902D01*
X0284779Y0036907D01*
X0284720Y0036916D01*
X0284661Y0036929D01*
X0284602Y0036945D01*
X0284545Y0036965D01*
X0284490Y0036988D01*
X0284435Y0037015D01*
X0284383Y0037044D01*
X0284332Y0037077D01*
X0284283Y0037113D01*
X0284237Y0037151D01*
X0284193Y0037193D01*
X0284151Y0037237D01*
X0284113Y0037283D01*
X0284077Y0037332D01*
X0284044Y0037383D01*
X0284015Y0037435D01*
X0283988Y0037490D01*
X0283965Y0037545D01*
X0283945Y0037602D01*
X0283929Y0037661D01*
X0283916Y0037720D01*
X0283907Y0037779D01*
X0283902Y0037840D01*
X0283900Y0037900D01*
X0284900Y0035900D02*
X0286400Y0035900D01*
X0286900Y0035400D01*
X0305900Y0035400D01*
X0306400Y0035900D01*
X0307900Y0035900D01*
X0307960Y0035898D01*
X0308021Y0035893D01*
X0308080Y0035884D01*
X0308139Y0035871D01*
X0308198Y0035855D01*
X0308255Y0035835D01*
X0308310Y0035812D01*
X0308365Y0035785D01*
X0308417Y0035756D01*
X0308468Y0035723D01*
X0308517Y0035687D01*
X0308563Y0035649D01*
X0308607Y0035607D01*
X0308649Y0035563D01*
X0308687Y0035517D01*
X0308723Y0035468D01*
X0308756Y0035417D01*
X0308785Y0035365D01*
X0308812Y0035310D01*
X0308835Y0035255D01*
X0308855Y0035198D01*
X0308871Y0035139D01*
X0308884Y0035080D01*
X0308893Y0035021D01*
X0308898Y0034960D01*
X0308900Y0034900D01*
X0308900Y0027900D02*
X0308898Y0027840D01*
X0308893Y0027779D01*
X0308884Y0027720D01*
X0308871Y0027661D01*
X0308855Y0027602D01*
X0308835Y0027545D01*
X0308812Y0027490D01*
X0308785Y0027435D01*
X0308756Y0027383D01*
X0308723Y0027332D01*
X0308687Y0027283D01*
X0308649Y0027237D01*
X0308607Y0027193D01*
X0308563Y0027151D01*
X0308517Y0027113D01*
X0308468Y0027077D01*
X0308417Y0027044D01*
X0308365Y0027015D01*
X0308310Y0026988D01*
X0308255Y0026965D01*
X0308198Y0026945D01*
X0308139Y0026929D01*
X0308080Y0026916D01*
X0308021Y0026907D01*
X0307960Y0026902D01*
X0307900Y0026900D01*
X0306400Y0026900D01*
X0305900Y0027400D01*
X0286900Y0027400D01*
X0286400Y0026900D01*
X0284900Y0026900D01*
X0284900Y0025900D02*
X0286400Y0025900D01*
X0286900Y0025400D01*
X0305900Y0025400D01*
X0306400Y0025900D01*
X0307900Y0025900D01*
X0307960Y0025898D01*
X0308021Y0025893D01*
X0308080Y0025884D01*
X0308139Y0025871D01*
X0308198Y0025855D01*
X0308255Y0025835D01*
X0308310Y0025812D01*
X0308365Y0025785D01*
X0308417Y0025756D01*
X0308468Y0025723D01*
X0308517Y0025687D01*
X0308563Y0025649D01*
X0308607Y0025607D01*
X0308649Y0025563D01*
X0308687Y0025517D01*
X0308723Y0025468D01*
X0308756Y0025417D01*
X0308785Y0025365D01*
X0308812Y0025310D01*
X0308835Y0025255D01*
X0308855Y0025198D01*
X0308871Y0025139D01*
X0308884Y0025080D01*
X0308893Y0025021D01*
X0308898Y0024960D01*
X0308900Y0024900D01*
X0308900Y0017900D02*
X0308898Y0017840D01*
X0308893Y0017779D01*
X0308884Y0017720D01*
X0308871Y0017661D01*
X0308855Y0017602D01*
X0308835Y0017545D01*
X0308812Y0017490D01*
X0308785Y0017435D01*
X0308756Y0017383D01*
X0308723Y0017332D01*
X0308687Y0017283D01*
X0308649Y0017237D01*
X0308607Y0017193D01*
X0308563Y0017151D01*
X0308517Y0017113D01*
X0308468Y0017077D01*
X0308417Y0017044D01*
X0308365Y0017015D01*
X0308310Y0016988D01*
X0308255Y0016965D01*
X0308198Y0016945D01*
X0308139Y0016929D01*
X0308080Y0016916D01*
X0308021Y0016907D01*
X0307960Y0016902D01*
X0307900Y0016900D01*
X0306400Y0016900D01*
X0305900Y0017400D01*
X0286900Y0017400D01*
X0286400Y0016900D01*
X0284900Y0016900D01*
X0284900Y0015900D02*
X0286400Y0015900D01*
X0286900Y0015400D01*
X0305900Y0015400D01*
X0306400Y0015900D01*
X0307900Y0015900D01*
X0307960Y0015898D01*
X0308021Y0015893D01*
X0308080Y0015884D01*
X0308139Y0015871D01*
X0308198Y0015855D01*
X0308255Y0015835D01*
X0308310Y0015812D01*
X0308365Y0015785D01*
X0308417Y0015756D01*
X0308468Y0015723D01*
X0308517Y0015687D01*
X0308563Y0015649D01*
X0308607Y0015607D01*
X0308649Y0015563D01*
X0308687Y0015517D01*
X0308723Y0015468D01*
X0308756Y0015417D01*
X0308785Y0015365D01*
X0308812Y0015310D01*
X0308835Y0015255D01*
X0308855Y0015198D01*
X0308871Y0015139D01*
X0308884Y0015080D01*
X0308893Y0015021D01*
X0308898Y0014960D01*
X0308900Y0014900D01*
X0308900Y0007900D02*
X0308898Y0007840D01*
X0308893Y0007779D01*
X0308884Y0007720D01*
X0308871Y0007661D01*
X0308855Y0007602D01*
X0308835Y0007545D01*
X0308812Y0007490D01*
X0308785Y0007435D01*
X0308756Y0007383D01*
X0308723Y0007332D01*
X0308687Y0007283D01*
X0308649Y0007237D01*
X0308607Y0007193D01*
X0308563Y0007151D01*
X0308517Y0007113D01*
X0308468Y0007077D01*
X0308417Y0007044D01*
X0308365Y0007015D01*
X0308310Y0006988D01*
X0308255Y0006965D01*
X0308198Y0006945D01*
X0308139Y0006929D01*
X0308080Y0006916D01*
X0308021Y0006907D01*
X0307960Y0006902D01*
X0307900Y0006900D01*
X0306400Y0006900D01*
X0305900Y0007400D01*
X0286900Y0007400D01*
X0286400Y0006900D01*
X0284900Y0006900D01*
X0284840Y0006902D01*
X0284779Y0006907D01*
X0284720Y0006916D01*
X0284661Y0006929D01*
X0284602Y0006945D01*
X0284545Y0006965D01*
X0284490Y0006988D01*
X0284435Y0007015D01*
X0284383Y0007044D01*
X0284332Y0007077D01*
X0284283Y0007113D01*
X0284237Y0007151D01*
X0284193Y0007193D01*
X0284151Y0007237D01*
X0284113Y0007283D01*
X0284077Y0007332D01*
X0284044Y0007383D01*
X0284015Y0007435D01*
X0283988Y0007490D01*
X0283965Y0007545D01*
X0283945Y0007602D01*
X0283929Y0007661D01*
X0283916Y0007720D01*
X0283907Y0007779D01*
X0283902Y0007840D01*
X0283900Y0007900D01*
X0283900Y0014900D02*
X0283902Y0014960D01*
X0283907Y0015021D01*
X0283916Y0015080D01*
X0283929Y0015139D01*
X0283945Y0015198D01*
X0283965Y0015255D01*
X0283988Y0015310D01*
X0284015Y0015365D01*
X0284044Y0015417D01*
X0284077Y0015468D01*
X0284113Y0015517D01*
X0284151Y0015563D01*
X0284193Y0015607D01*
X0284237Y0015649D01*
X0284283Y0015687D01*
X0284332Y0015723D01*
X0284383Y0015756D01*
X0284435Y0015785D01*
X0284490Y0015812D01*
X0284545Y0015835D01*
X0284602Y0015855D01*
X0284661Y0015871D01*
X0284720Y0015884D01*
X0284779Y0015893D01*
X0284840Y0015898D01*
X0284900Y0015900D01*
X0284900Y0016900D02*
X0284840Y0016902D01*
X0284779Y0016907D01*
X0284720Y0016916D01*
X0284661Y0016929D01*
X0284602Y0016945D01*
X0284545Y0016965D01*
X0284490Y0016988D01*
X0284435Y0017015D01*
X0284383Y0017044D01*
X0284332Y0017077D01*
X0284283Y0017113D01*
X0284237Y0017151D01*
X0284193Y0017193D01*
X0284151Y0017237D01*
X0284113Y0017283D01*
X0284077Y0017332D01*
X0284044Y0017383D01*
X0284015Y0017435D01*
X0283988Y0017490D01*
X0283965Y0017545D01*
X0283945Y0017602D01*
X0283929Y0017661D01*
X0283916Y0017720D01*
X0283907Y0017779D01*
X0283902Y0017840D01*
X0283900Y0017900D01*
X0283900Y0024900D02*
X0283902Y0024960D01*
X0283907Y0025021D01*
X0283916Y0025080D01*
X0283929Y0025139D01*
X0283945Y0025198D01*
X0283965Y0025255D01*
X0283988Y0025310D01*
X0284015Y0025365D01*
X0284044Y0025417D01*
X0284077Y0025468D01*
X0284113Y0025517D01*
X0284151Y0025563D01*
X0284193Y0025607D01*
X0284237Y0025649D01*
X0284283Y0025687D01*
X0284332Y0025723D01*
X0284383Y0025756D01*
X0284435Y0025785D01*
X0284490Y0025812D01*
X0284545Y0025835D01*
X0284602Y0025855D01*
X0284661Y0025871D01*
X0284720Y0025884D01*
X0284779Y0025893D01*
X0284840Y0025898D01*
X0284900Y0025900D01*
X0284900Y0026900D02*
X0284840Y0026902D01*
X0284779Y0026907D01*
X0284720Y0026916D01*
X0284661Y0026929D01*
X0284602Y0026945D01*
X0284545Y0026965D01*
X0284490Y0026988D01*
X0284435Y0027015D01*
X0284383Y0027044D01*
X0284332Y0027077D01*
X0284283Y0027113D01*
X0284237Y0027151D01*
X0284193Y0027193D01*
X0284151Y0027237D01*
X0284113Y0027283D01*
X0284077Y0027332D01*
X0284044Y0027383D01*
X0284015Y0027435D01*
X0283988Y0027490D01*
X0283965Y0027545D01*
X0283945Y0027602D01*
X0283929Y0027661D01*
X0283916Y0027720D01*
X0283907Y0027779D01*
X0283902Y0027840D01*
X0283900Y0027900D01*
X0283900Y0034900D02*
X0283902Y0034960D01*
X0283907Y0035021D01*
X0283916Y0035080D01*
X0283929Y0035139D01*
X0283945Y0035198D01*
X0283965Y0035255D01*
X0283988Y0035310D01*
X0284015Y0035365D01*
X0284044Y0035417D01*
X0284077Y0035468D01*
X0284113Y0035517D01*
X0284151Y0035563D01*
X0284193Y0035607D01*
X0284237Y0035649D01*
X0284283Y0035687D01*
X0284332Y0035723D01*
X0284383Y0035756D01*
X0284435Y0035785D01*
X0284490Y0035812D01*
X0284545Y0035835D01*
X0284602Y0035855D01*
X0284661Y0035871D01*
X0284720Y0035884D01*
X0284779Y0035893D01*
X0284840Y0035898D01*
X0284900Y0035900D01*
X0283900Y0044900D02*
X0283902Y0044960D01*
X0283907Y0045021D01*
X0283916Y0045080D01*
X0283929Y0045139D01*
X0283945Y0045198D01*
X0283965Y0045255D01*
X0283988Y0045310D01*
X0284015Y0045365D01*
X0284044Y0045417D01*
X0284077Y0045468D01*
X0284113Y0045517D01*
X0284151Y0045563D01*
X0284193Y0045607D01*
X0284237Y0045649D01*
X0284283Y0045687D01*
X0284332Y0045723D01*
X0284383Y0045756D01*
X0284435Y0045785D01*
X0284490Y0045812D01*
X0284545Y0045835D01*
X0284602Y0045855D01*
X0284661Y0045871D01*
X0284720Y0045884D01*
X0284779Y0045893D01*
X0284840Y0045898D01*
X0284900Y0045900D01*
X0284900Y0046900D02*
X0284840Y0046902D01*
X0284779Y0046907D01*
X0284720Y0046916D01*
X0284661Y0046929D01*
X0284602Y0046945D01*
X0284545Y0046965D01*
X0284490Y0046988D01*
X0284435Y0047015D01*
X0284383Y0047044D01*
X0284332Y0047077D01*
X0284283Y0047113D01*
X0284237Y0047151D01*
X0284193Y0047193D01*
X0284151Y0047237D01*
X0284113Y0047283D01*
X0284077Y0047332D01*
X0284044Y0047383D01*
X0284015Y0047435D01*
X0283988Y0047490D01*
X0283965Y0047545D01*
X0283945Y0047602D01*
X0283929Y0047661D01*
X0283916Y0047720D01*
X0283907Y0047779D01*
X0283902Y0047840D01*
X0283900Y0047900D01*
X0283900Y0054900D02*
X0283902Y0054960D01*
X0283907Y0055021D01*
X0283916Y0055080D01*
X0283929Y0055139D01*
X0283945Y0055198D01*
X0283965Y0055255D01*
X0283988Y0055310D01*
X0284015Y0055365D01*
X0284044Y0055417D01*
X0284077Y0055468D01*
X0284113Y0055517D01*
X0284151Y0055563D01*
X0284193Y0055607D01*
X0284237Y0055649D01*
X0284283Y0055687D01*
X0284332Y0055723D01*
X0284383Y0055756D01*
X0284435Y0055785D01*
X0284490Y0055812D01*
X0284545Y0055835D01*
X0284602Y0055855D01*
X0284661Y0055871D01*
X0284720Y0055884D01*
X0284779Y0055893D01*
X0284840Y0055898D01*
X0284900Y0055900D01*
X0284900Y0056900D02*
X0284840Y0056902D01*
X0284779Y0056907D01*
X0284720Y0056916D01*
X0284661Y0056929D01*
X0284602Y0056945D01*
X0284545Y0056965D01*
X0284490Y0056988D01*
X0284435Y0057015D01*
X0284383Y0057044D01*
X0284332Y0057077D01*
X0284283Y0057113D01*
X0284237Y0057151D01*
X0284193Y0057193D01*
X0284151Y0057237D01*
X0284113Y0057283D01*
X0284077Y0057332D01*
X0284044Y0057383D01*
X0284015Y0057435D01*
X0283988Y0057490D01*
X0283965Y0057545D01*
X0283945Y0057602D01*
X0283929Y0057661D01*
X0283916Y0057720D01*
X0283907Y0057779D01*
X0283902Y0057840D01*
X0283900Y0057900D01*
X0283900Y0064900D02*
X0283902Y0064960D01*
X0283907Y0065021D01*
X0283916Y0065080D01*
X0283929Y0065139D01*
X0283945Y0065198D01*
X0283965Y0065255D01*
X0283988Y0065310D01*
X0284015Y0065365D01*
X0284044Y0065417D01*
X0284077Y0065468D01*
X0284113Y0065517D01*
X0284151Y0065563D01*
X0284193Y0065607D01*
X0284237Y0065649D01*
X0284283Y0065687D01*
X0284332Y0065723D01*
X0284383Y0065756D01*
X0284435Y0065785D01*
X0284490Y0065812D01*
X0284545Y0065835D01*
X0284602Y0065855D01*
X0284661Y0065871D01*
X0284720Y0065884D01*
X0284779Y0065893D01*
X0284840Y0065898D01*
X0284900Y0065900D01*
X0284900Y0066900D02*
X0284840Y0066902D01*
X0284779Y0066907D01*
X0284720Y0066916D01*
X0284661Y0066929D01*
X0284602Y0066945D01*
X0284545Y0066965D01*
X0284490Y0066988D01*
X0284435Y0067015D01*
X0284383Y0067044D01*
X0284332Y0067077D01*
X0284283Y0067113D01*
X0284237Y0067151D01*
X0284193Y0067193D01*
X0284151Y0067237D01*
X0284113Y0067283D01*
X0284077Y0067332D01*
X0284044Y0067383D01*
X0284015Y0067435D01*
X0283988Y0067490D01*
X0283965Y0067545D01*
X0283945Y0067602D01*
X0283929Y0067661D01*
X0283916Y0067720D01*
X0283907Y0067779D01*
X0283902Y0067840D01*
X0283900Y0067900D01*
X0283900Y0074900D02*
X0283902Y0074960D01*
X0283907Y0075021D01*
X0283916Y0075080D01*
X0283929Y0075139D01*
X0283945Y0075198D01*
X0283965Y0075255D01*
X0283988Y0075310D01*
X0284015Y0075365D01*
X0284044Y0075417D01*
X0284077Y0075468D01*
X0284113Y0075517D01*
X0284151Y0075563D01*
X0284193Y0075607D01*
X0284237Y0075649D01*
X0284283Y0075687D01*
X0284332Y0075723D01*
X0284383Y0075756D01*
X0284435Y0075785D01*
X0284490Y0075812D01*
X0284545Y0075835D01*
X0284602Y0075855D01*
X0284661Y0075871D01*
X0284720Y0075884D01*
X0284779Y0075893D01*
X0284840Y0075898D01*
X0284900Y0075900D01*
X0284900Y0076900D02*
X0284840Y0076902D01*
X0284779Y0076907D01*
X0284720Y0076916D01*
X0284661Y0076929D01*
X0284602Y0076945D01*
X0284545Y0076965D01*
X0284490Y0076988D01*
X0284435Y0077015D01*
X0284383Y0077044D01*
X0284332Y0077077D01*
X0284283Y0077113D01*
X0284237Y0077151D01*
X0284193Y0077193D01*
X0284151Y0077237D01*
X0284113Y0077283D01*
X0284077Y0077332D01*
X0284044Y0077383D01*
X0284015Y0077435D01*
X0283988Y0077490D01*
X0283965Y0077545D01*
X0283945Y0077602D01*
X0283929Y0077661D01*
X0283916Y0077720D01*
X0283907Y0077779D01*
X0283902Y0077840D01*
X0283900Y0077900D01*
X0283900Y0084900D02*
X0283902Y0084960D01*
X0283907Y0085021D01*
X0283916Y0085080D01*
X0283929Y0085139D01*
X0283945Y0085198D01*
X0283965Y0085255D01*
X0283988Y0085310D01*
X0284015Y0085365D01*
X0284044Y0085417D01*
X0284077Y0085468D01*
X0284113Y0085517D01*
X0284151Y0085563D01*
X0284193Y0085607D01*
X0284237Y0085649D01*
X0284283Y0085687D01*
X0284332Y0085723D01*
X0284383Y0085756D01*
X0284435Y0085785D01*
X0284490Y0085812D01*
X0284545Y0085835D01*
X0284602Y0085855D01*
X0284661Y0085871D01*
X0284720Y0085884D01*
X0284779Y0085893D01*
X0284840Y0085898D01*
X0284900Y0085900D01*
X0284900Y0086900D02*
X0284840Y0086902D01*
X0284779Y0086907D01*
X0284720Y0086916D01*
X0284661Y0086929D01*
X0284602Y0086945D01*
X0284545Y0086965D01*
X0284490Y0086988D01*
X0284435Y0087015D01*
X0284383Y0087044D01*
X0284332Y0087077D01*
X0284283Y0087113D01*
X0284237Y0087151D01*
X0284193Y0087193D01*
X0284151Y0087237D01*
X0284113Y0087283D01*
X0284077Y0087332D01*
X0284044Y0087383D01*
X0284015Y0087435D01*
X0283988Y0087490D01*
X0283965Y0087545D01*
X0283945Y0087602D01*
X0283929Y0087661D01*
X0283916Y0087720D01*
X0283907Y0087779D01*
X0283902Y0087840D01*
X0283900Y0087900D01*
X0283900Y0094900D02*
X0283902Y0094960D01*
X0283907Y0095021D01*
X0283916Y0095080D01*
X0283929Y0095139D01*
X0283945Y0095198D01*
X0283965Y0095255D01*
X0283988Y0095310D01*
X0284015Y0095365D01*
X0284044Y0095417D01*
X0284077Y0095468D01*
X0284113Y0095517D01*
X0284151Y0095563D01*
X0284193Y0095607D01*
X0284237Y0095649D01*
X0284283Y0095687D01*
X0284332Y0095723D01*
X0284383Y0095756D01*
X0284435Y0095785D01*
X0284490Y0095812D01*
X0284545Y0095835D01*
X0284602Y0095855D01*
X0284661Y0095871D01*
X0284720Y0095884D01*
X0284779Y0095893D01*
X0284840Y0095898D01*
X0284900Y0095900D01*
X0284900Y0096900D02*
X0284840Y0096902D01*
X0284779Y0096907D01*
X0284720Y0096916D01*
X0284661Y0096929D01*
X0284602Y0096945D01*
X0284545Y0096965D01*
X0284490Y0096988D01*
X0284435Y0097015D01*
X0284383Y0097044D01*
X0284332Y0097077D01*
X0284283Y0097113D01*
X0284237Y0097151D01*
X0284193Y0097193D01*
X0284151Y0097237D01*
X0284113Y0097283D01*
X0284077Y0097332D01*
X0284044Y0097383D01*
X0284015Y0097435D01*
X0283988Y0097490D01*
X0283965Y0097545D01*
X0283945Y0097602D01*
X0283929Y0097661D01*
X0283916Y0097720D01*
X0283907Y0097779D01*
X0283902Y0097840D01*
X0283900Y0097900D01*
X0283900Y0104900D02*
X0283902Y0104960D01*
X0283907Y0105021D01*
X0283916Y0105080D01*
X0283929Y0105139D01*
X0283945Y0105198D01*
X0283965Y0105255D01*
X0283988Y0105310D01*
X0284015Y0105365D01*
X0284044Y0105417D01*
X0284077Y0105468D01*
X0284113Y0105517D01*
X0284151Y0105563D01*
X0284193Y0105607D01*
X0284237Y0105649D01*
X0284283Y0105687D01*
X0284332Y0105723D01*
X0284383Y0105756D01*
X0284435Y0105785D01*
X0284490Y0105812D01*
X0284545Y0105835D01*
X0284602Y0105855D01*
X0284661Y0105871D01*
X0284720Y0105884D01*
X0284779Y0105893D01*
X0284840Y0105898D01*
X0284900Y0105900D01*
X0207400Y0108400D02*
X0207400Y0004400D01*
X0185400Y0004400D01*
X0185400Y0108400D01*
X0193900Y0108400D01*
X0193902Y0108302D01*
X0193908Y0108204D01*
X0193917Y0108106D01*
X0193931Y0108009D01*
X0193948Y0107912D01*
X0193969Y0107816D01*
X0193994Y0107721D01*
X0194022Y0107627D01*
X0194055Y0107535D01*
X0194090Y0107443D01*
X0194130Y0107353D01*
X0194172Y0107265D01*
X0194219Y0107178D01*
X0194268Y0107094D01*
X0194321Y0107011D01*
X0194377Y0106931D01*
X0194437Y0106852D01*
X0194499Y0106776D01*
X0194564Y0106703D01*
X0194632Y0106632D01*
X0194703Y0106564D01*
X0194776Y0106499D01*
X0194852Y0106437D01*
X0194931Y0106377D01*
X0195011Y0106321D01*
X0195094Y0106268D01*
X0195178Y0106219D01*
X0195265Y0106172D01*
X0195353Y0106130D01*
X0195443Y0106090D01*
X0195535Y0106055D01*
X0195627Y0106022D01*
X0195721Y0105994D01*
X0195816Y0105969D01*
X0195912Y0105948D01*
X0196009Y0105931D01*
X0196106Y0105917D01*
X0196204Y0105908D01*
X0196302Y0105902D01*
X0196400Y0105900D01*
X0196498Y0105902D01*
X0196596Y0105908D01*
X0196694Y0105917D01*
X0196791Y0105931D01*
X0196888Y0105948D01*
X0196984Y0105969D01*
X0197079Y0105994D01*
X0197173Y0106022D01*
X0197265Y0106055D01*
X0197357Y0106090D01*
X0197447Y0106130D01*
X0197535Y0106172D01*
X0197622Y0106219D01*
X0197706Y0106268D01*
X0197789Y0106321D01*
X0197869Y0106377D01*
X0197948Y0106437D01*
X0198024Y0106499D01*
X0198097Y0106564D01*
X0198168Y0106632D01*
X0198236Y0106703D01*
X0198301Y0106776D01*
X0198363Y0106852D01*
X0198423Y0106931D01*
X0198479Y0107011D01*
X0198532Y0107094D01*
X0198581Y0107178D01*
X0198628Y0107265D01*
X0198670Y0107353D01*
X0198710Y0107443D01*
X0198745Y0107535D01*
X0198778Y0107627D01*
X0198806Y0107721D01*
X0198831Y0107816D01*
X0198852Y0107912D01*
X0198869Y0108009D01*
X0198883Y0108106D01*
X0198892Y0108204D01*
X0198898Y0108302D01*
X0198900Y0108400D01*
X0207400Y0108400D01*
X0165900Y0087900D02*
X0165900Y0086400D01*
X0165400Y0085900D01*
X0165400Y0066900D01*
X0165900Y0066400D01*
X0165900Y0064900D01*
X0165898Y0064840D01*
X0165893Y0064779D01*
X0165884Y0064720D01*
X0165871Y0064661D01*
X0165855Y0064602D01*
X0165835Y0064545D01*
X0165812Y0064490D01*
X0165785Y0064435D01*
X0165756Y0064383D01*
X0165723Y0064332D01*
X0165687Y0064283D01*
X0165649Y0064237D01*
X0165607Y0064193D01*
X0165563Y0064151D01*
X0165517Y0064113D01*
X0165468Y0064077D01*
X0165417Y0064044D01*
X0165365Y0064015D01*
X0165310Y0063988D01*
X0165255Y0063965D01*
X0165198Y0063945D01*
X0165139Y0063929D01*
X0165080Y0063916D01*
X0165021Y0063907D01*
X0164960Y0063902D01*
X0164900Y0063900D01*
X0157900Y0063900D02*
X0157840Y0063902D01*
X0157779Y0063907D01*
X0157720Y0063916D01*
X0157661Y0063929D01*
X0157602Y0063945D01*
X0157545Y0063965D01*
X0157490Y0063988D01*
X0157435Y0064015D01*
X0157383Y0064044D01*
X0157332Y0064077D01*
X0157283Y0064113D01*
X0157237Y0064151D01*
X0157193Y0064193D01*
X0157151Y0064237D01*
X0157113Y0064283D01*
X0157077Y0064332D01*
X0157044Y0064383D01*
X0157015Y0064435D01*
X0156988Y0064490D01*
X0156965Y0064545D01*
X0156945Y0064602D01*
X0156929Y0064661D01*
X0156916Y0064720D01*
X0156907Y0064779D01*
X0156902Y0064840D01*
X0156900Y0064900D01*
X0156900Y0066400D01*
X0157400Y0066900D01*
X0157400Y0085900D01*
X0156900Y0086400D01*
X0156900Y0087900D01*
X0156902Y0087960D01*
X0156907Y0088021D01*
X0156916Y0088080D01*
X0156929Y0088139D01*
X0156945Y0088198D01*
X0156965Y0088255D01*
X0156988Y0088310D01*
X0157015Y0088365D01*
X0157044Y0088417D01*
X0157077Y0088468D01*
X0157113Y0088517D01*
X0157151Y0088563D01*
X0157193Y0088607D01*
X0157237Y0088649D01*
X0157283Y0088687D01*
X0157332Y0088723D01*
X0157383Y0088756D01*
X0157435Y0088785D01*
X0157490Y0088812D01*
X0157545Y0088835D01*
X0157602Y0088855D01*
X0157661Y0088871D01*
X0157720Y0088884D01*
X0157779Y0088893D01*
X0157840Y0088898D01*
X0157900Y0088900D01*
X0150900Y0087900D02*
X0150900Y0086400D01*
X0150400Y0085900D01*
X0150400Y0066900D01*
X0150900Y0066400D01*
X0150900Y0064900D01*
X0150898Y0064840D01*
X0150893Y0064779D01*
X0150884Y0064720D01*
X0150871Y0064661D01*
X0150855Y0064602D01*
X0150835Y0064545D01*
X0150812Y0064490D01*
X0150785Y0064435D01*
X0150756Y0064383D01*
X0150723Y0064332D01*
X0150687Y0064283D01*
X0150649Y0064237D01*
X0150607Y0064193D01*
X0150563Y0064151D01*
X0150517Y0064113D01*
X0150468Y0064077D01*
X0150417Y0064044D01*
X0150365Y0064015D01*
X0150310Y0063988D01*
X0150255Y0063965D01*
X0150198Y0063945D01*
X0150139Y0063929D01*
X0150080Y0063916D01*
X0150021Y0063907D01*
X0149960Y0063902D01*
X0149900Y0063900D01*
X0142900Y0063900D02*
X0142840Y0063902D01*
X0142779Y0063907D01*
X0142720Y0063916D01*
X0142661Y0063929D01*
X0142602Y0063945D01*
X0142545Y0063965D01*
X0142490Y0063988D01*
X0142435Y0064015D01*
X0142383Y0064044D01*
X0142332Y0064077D01*
X0142283Y0064113D01*
X0142237Y0064151D01*
X0142193Y0064193D01*
X0142151Y0064237D01*
X0142113Y0064283D01*
X0142077Y0064332D01*
X0142044Y0064383D01*
X0142015Y0064435D01*
X0141988Y0064490D01*
X0141965Y0064545D01*
X0141945Y0064602D01*
X0141929Y0064661D01*
X0141916Y0064720D01*
X0141907Y0064779D01*
X0141902Y0064840D01*
X0141900Y0064900D01*
X0141900Y0066400D01*
X0142400Y0066900D01*
X0142400Y0085900D01*
X0141900Y0086400D01*
X0141900Y0087900D01*
X0141902Y0087960D01*
X0141907Y0088021D01*
X0141916Y0088080D01*
X0141929Y0088139D01*
X0141945Y0088198D01*
X0141965Y0088255D01*
X0141988Y0088310D01*
X0142015Y0088365D01*
X0142044Y0088417D01*
X0142077Y0088468D01*
X0142113Y0088517D01*
X0142151Y0088563D01*
X0142193Y0088607D01*
X0142237Y0088649D01*
X0142283Y0088687D01*
X0142332Y0088723D01*
X0142383Y0088756D01*
X0142435Y0088785D01*
X0142490Y0088812D01*
X0142545Y0088835D01*
X0142602Y0088855D01*
X0142661Y0088871D01*
X0142720Y0088884D01*
X0142779Y0088893D01*
X0142840Y0088898D01*
X0142900Y0088900D01*
X0135900Y0087900D02*
X0135900Y0086400D01*
X0135400Y0085900D01*
X0135400Y0066900D01*
X0135900Y0066400D01*
X0135900Y0064900D01*
X0135898Y0064840D01*
X0135893Y0064779D01*
X0135884Y0064720D01*
X0135871Y0064661D01*
X0135855Y0064602D01*
X0135835Y0064545D01*
X0135812Y0064490D01*
X0135785Y0064435D01*
X0135756Y0064383D01*
X0135723Y0064332D01*
X0135687Y0064283D01*
X0135649Y0064237D01*
X0135607Y0064193D01*
X0135563Y0064151D01*
X0135517Y0064113D01*
X0135468Y0064077D01*
X0135417Y0064044D01*
X0135365Y0064015D01*
X0135310Y0063988D01*
X0135255Y0063965D01*
X0135198Y0063945D01*
X0135139Y0063929D01*
X0135080Y0063916D01*
X0135021Y0063907D01*
X0134960Y0063902D01*
X0134900Y0063900D01*
X0127900Y0063900D02*
X0127840Y0063902D01*
X0127779Y0063907D01*
X0127720Y0063916D01*
X0127661Y0063929D01*
X0127602Y0063945D01*
X0127545Y0063965D01*
X0127490Y0063988D01*
X0127435Y0064015D01*
X0127383Y0064044D01*
X0127332Y0064077D01*
X0127283Y0064113D01*
X0127237Y0064151D01*
X0127193Y0064193D01*
X0127151Y0064237D01*
X0127113Y0064283D01*
X0127077Y0064332D01*
X0127044Y0064383D01*
X0127015Y0064435D01*
X0126988Y0064490D01*
X0126965Y0064545D01*
X0126945Y0064602D01*
X0126929Y0064661D01*
X0126916Y0064720D01*
X0126907Y0064779D01*
X0126902Y0064840D01*
X0126900Y0064900D01*
X0126900Y0066400D01*
X0127400Y0066900D01*
X0127400Y0085900D01*
X0126900Y0086400D01*
X0126900Y0087900D01*
X0126902Y0087960D01*
X0126907Y0088021D01*
X0126916Y0088080D01*
X0126929Y0088139D01*
X0126945Y0088198D01*
X0126965Y0088255D01*
X0126988Y0088310D01*
X0127015Y0088365D01*
X0127044Y0088417D01*
X0127077Y0088468D01*
X0127113Y0088517D01*
X0127151Y0088563D01*
X0127193Y0088607D01*
X0127237Y0088649D01*
X0127283Y0088687D01*
X0127332Y0088723D01*
X0127383Y0088756D01*
X0127435Y0088785D01*
X0127490Y0088812D01*
X0127545Y0088835D01*
X0127602Y0088855D01*
X0127661Y0088871D01*
X0127720Y0088884D01*
X0127779Y0088893D01*
X0127840Y0088898D01*
X0127900Y0088900D01*
X0134900Y0088900D02*
X0134960Y0088898D01*
X0135021Y0088893D01*
X0135080Y0088884D01*
X0135139Y0088871D01*
X0135198Y0088855D01*
X0135255Y0088835D01*
X0135310Y0088812D01*
X0135365Y0088785D01*
X0135417Y0088756D01*
X0135468Y0088723D01*
X0135517Y0088687D01*
X0135563Y0088649D01*
X0135607Y0088607D01*
X0135649Y0088563D01*
X0135687Y0088517D01*
X0135723Y0088468D01*
X0135756Y0088417D01*
X0135785Y0088365D01*
X0135812Y0088310D01*
X0135835Y0088255D01*
X0135855Y0088198D01*
X0135871Y0088139D01*
X0135884Y0088080D01*
X0135893Y0088021D01*
X0135898Y0087960D01*
X0135900Y0087900D01*
X0149900Y0088900D02*
X0149960Y0088898D01*
X0150021Y0088893D01*
X0150080Y0088884D01*
X0150139Y0088871D01*
X0150198Y0088855D01*
X0150255Y0088835D01*
X0150310Y0088812D01*
X0150365Y0088785D01*
X0150417Y0088756D01*
X0150468Y0088723D01*
X0150517Y0088687D01*
X0150563Y0088649D01*
X0150607Y0088607D01*
X0150649Y0088563D01*
X0150687Y0088517D01*
X0150723Y0088468D01*
X0150756Y0088417D01*
X0150785Y0088365D01*
X0150812Y0088310D01*
X0150835Y0088255D01*
X0150855Y0088198D01*
X0150871Y0088139D01*
X0150884Y0088080D01*
X0150893Y0088021D01*
X0150898Y0087960D01*
X0150900Y0087900D01*
X0164900Y0088900D02*
X0164960Y0088898D01*
X0165021Y0088893D01*
X0165080Y0088884D01*
X0165139Y0088871D01*
X0165198Y0088855D01*
X0165255Y0088835D01*
X0165310Y0088812D01*
X0165365Y0088785D01*
X0165417Y0088756D01*
X0165468Y0088723D01*
X0165517Y0088687D01*
X0165563Y0088649D01*
X0165607Y0088607D01*
X0165649Y0088563D01*
X0165687Y0088517D01*
X0165723Y0088468D01*
X0165756Y0088417D01*
X0165785Y0088365D01*
X0165812Y0088310D01*
X0165835Y0088255D01*
X0165855Y0088198D01*
X0165871Y0088139D01*
X0165884Y0088080D01*
X0165893Y0088021D01*
X0165898Y0087960D01*
X0165900Y0087900D01*
X0121100Y0070032D02*
X0120032Y0071100D01*
X0117897Y0071100D01*
X0116830Y0070032D01*
X0116830Y0065762D01*
X0117897Y0064695D01*
X0120032Y0064695D01*
X0121100Y0065762D01*
X0121100Y0070032D01*
X0114655Y0067897D02*
X0112519Y0067897D01*
X0110358Y0067897D02*
X0108222Y0067897D01*
X0109290Y0065762D02*
X0108222Y0064695D01*
X0109290Y0065762D02*
X0109290Y0071100D01*
X0113587Y0071100D02*
X0113587Y0065762D01*
X0112519Y0064695D01*
X0080900Y0084900D02*
X0080900Y0086400D01*
X0080400Y0086900D01*
X0080400Y0105900D01*
X0080900Y0106400D01*
X0080900Y0107900D01*
X0080898Y0107960D01*
X0080893Y0108021D01*
X0080884Y0108080D01*
X0080871Y0108139D01*
X0080855Y0108198D01*
X0080835Y0108255D01*
X0080812Y0108310D01*
X0080785Y0108365D01*
X0080756Y0108417D01*
X0080723Y0108468D01*
X0080687Y0108517D01*
X0080649Y0108563D01*
X0080607Y0108607D01*
X0080563Y0108649D01*
X0080517Y0108687D01*
X0080468Y0108723D01*
X0080417Y0108756D01*
X0080365Y0108785D01*
X0080310Y0108812D01*
X0080255Y0108835D01*
X0080198Y0108855D01*
X0080139Y0108871D01*
X0080080Y0108884D01*
X0080021Y0108893D01*
X0079960Y0108898D01*
X0079900Y0108900D01*
X0072900Y0108900D02*
X0072840Y0108898D01*
X0072779Y0108893D01*
X0072720Y0108884D01*
X0072661Y0108871D01*
X0072602Y0108855D01*
X0072545Y0108835D01*
X0072490Y0108812D01*
X0072435Y0108785D01*
X0072383Y0108756D01*
X0072332Y0108723D01*
X0072283Y0108687D01*
X0072237Y0108649D01*
X0072193Y0108607D01*
X0072151Y0108563D01*
X0072113Y0108517D01*
X0072077Y0108468D01*
X0072044Y0108417D01*
X0072015Y0108365D01*
X0071988Y0108310D01*
X0071965Y0108255D01*
X0071945Y0108198D01*
X0071929Y0108139D01*
X0071916Y0108080D01*
X0071907Y0108021D01*
X0071902Y0107960D01*
X0071900Y0107900D01*
X0071900Y0106400D01*
X0072400Y0105900D01*
X0072400Y0086900D01*
X0071900Y0086400D01*
X0071900Y0084900D01*
X0071902Y0084840D01*
X0071907Y0084779D01*
X0071916Y0084720D01*
X0071929Y0084661D01*
X0071945Y0084602D01*
X0071965Y0084545D01*
X0071988Y0084490D01*
X0072015Y0084435D01*
X0072044Y0084383D01*
X0072077Y0084332D01*
X0072113Y0084283D01*
X0072151Y0084237D01*
X0072193Y0084193D01*
X0072237Y0084151D01*
X0072283Y0084113D01*
X0072332Y0084077D01*
X0072383Y0084044D01*
X0072435Y0084015D01*
X0072490Y0083988D01*
X0072545Y0083965D01*
X0072602Y0083945D01*
X0072661Y0083929D01*
X0072720Y0083916D01*
X0072779Y0083907D01*
X0072840Y0083902D01*
X0072900Y0083900D01*
X0065900Y0084900D02*
X0065900Y0086400D01*
X0065400Y0086900D01*
X0065400Y0105900D01*
X0065900Y0106400D01*
X0065900Y0107900D01*
X0065898Y0107960D01*
X0065893Y0108021D01*
X0065884Y0108080D01*
X0065871Y0108139D01*
X0065855Y0108198D01*
X0065835Y0108255D01*
X0065812Y0108310D01*
X0065785Y0108365D01*
X0065756Y0108417D01*
X0065723Y0108468D01*
X0065687Y0108517D01*
X0065649Y0108563D01*
X0065607Y0108607D01*
X0065563Y0108649D01*
X0065517Y0108687D01*
X0065468Y0108723D01*
X0065417Y0108756D01*
X0065365Y0108785D01*
X0065310Y0108812D01*
X0065255Y0108835D01*
X0065198Y0108855D01*
X0065139Y0108871D01*
X0065080Y0108884D01*
X0065021Y0108893D01*
X0064960Y0108898D01*
X0064900Y0108900D01*
X0057900Y0108900D02*
X0057840Y0108898D01*
X0057779Y0108893D01*
X0057720Y0108884D01*
X0057661Y0108871D01*
X0057602Y0108855D01*
X0057545Y0108835D01*
X0057490Y0108812D01*
X0057435Y0108785D01*
X0057383Y0108756D01*
X0057332Y0108723D01*
X0057283Y0108687D01*
X0057237Y0108649D01*
X0057193Y0108607D01*
X0057151Y0108563D01*
X0057113Y0108517D01*
X0057077Y0108468D01*
X0057044Y0108417D01*
X0057015Y0108365D01*
X0056988Y0108310D01*
X0056965Y0108255D01*
X0056945Y0108198D01*
X0056929Y0108139D01*
X0056916Y0108080D01*
X0056907Y0108021D01*
X0056902Y0107960D01*
X0056900Y0107900D01*
X0056900Y0106400D01*
X0057400Y0105900D01*
X0057400Y0086900D01*
X0056900Y0086400D01*
X0056900Y0084900D01*
X0056902Y0084840D01*
X0056907Y0084779D01*
X0056916Y0084720D01*
X0056929Y0084661D01*
X0056945Y0084602D01*
X0056965Y0084545D01*
X0056988Y0084490D01*
X0057015Y0084435D01*
X0057044Y0084383D01*
X0057077Y0084332D01*
X0057113Y0084283D01*
X0057151Y0084237D01*
X0057193Y0084193D01*
X0057237Y0084151D01*
X0057283Y0084113D01*
X0057332Y0084077D01*
X0057383Y0084044D01*
X0057435Y0084015D01*
X0057490Y0083988D01*
X0057545Y0083965D01*
X0057602Y0083945D01*
X0057661Y0083929D01*
X0057720Y0083916D01*
X0057779Y0083907D01*
X0057840Y0083902D01*
X0057900Y0083900D01*
X0064900Y0083900D02*
X0064960Y0083902D01*
X0065021Y0083907D01*
X0065080Y0083916D01*
X0065139Y0083929D01*
X0065198Y0083945D01*
X0065255Y0083965D01*
X0065310Y0083988D01*
X0065365Y0084015D01*
X0065417Y0084044D01*
X0065468Y0084077D01*
X0065517Y0084113D01*
X0065563Y0084151D01*
X0065607Y0084193D01*
X0065649Y0084237D01*
X0065687Y0084283D01*
X0065723Y0084332D01*
X0065756Y0084383D01*
X0065785Y0084435D01*
X0065812Y0084490D01*
X0065835Y0084545D01*
X0065855Y0084602D01*
X0065871Y0084661D01*
X0065884Y0084720D01*
X0065893Y0084779D01*
X0065898Y0084840D01*
X0065900Y0084900D01*
X0079900Y0083900D02*
X0079960Y0083902D01*
X0080021Y0083907D01*
X0080080Y0083916D01*
X0080139Y0083929D01*
X0080198Y0083945D01*
X0080255Y0083965D01*
X0080310Y0083988D01*
X0080365Y0084015D01*
X0080417Y0084044D01*
X0080468Y0084077D01*
X0080517Y0084113D01*
X0080563Y0084151D01*
X0080607Y0084193D01*
X0080649Y0084237D01*
X0080687Y0084283D01*
X0080723Y0084332D01*
X0080756Y0084383D01*
X0080785Y0084435D01*
X0080812Y0084490D01*
X0080835Y0084545D01*
X0080855Y0084602D01*
X0080871Y0084661D01*
X0080884Y0084720D01*
X0080893Y0084779D01*
X0080898Y0084840D01*
X0080900Y0084900D01*
X0095400Y0096400D02*
X0095403Y0096670D01*
X0095413Y0096940D01*
X0095430Y0097209D01*
X0095453Y0097478D01*
X0095483Y0097747D01*
X0095519Y0098014D01*
X0095562Y0098281D01*
X0095611Y0098546D01*
X0095667Y0098810D01*
X0095730Y0099073D01*
X0095798Y0099334D01*
X0095874Y0099593D01*
X0095955Y0099850D01*
X0096043Y0100106D01*
X0096137Y0100359D01*
X0096237Y0100610D01*
X0096344Y0100858D01*
X0096456Y0101103D01*
X0096575Y0101346D01*
X0096699Y0101585D01*
X0096829Y0101822D01*
X0096965Y0102055D01*
X0097107Y0102285D01*
X0097254Y0102511D01*
X0097407Y0102734D01*
X0097565Y0102953D01*
X0097728Y0103168D01*
X0097897Y0103378D01*
X0098071Y0103585D01*
X0098250Y0103787D01*
X0098433Y0103985D01*
X0098622Y0104178D01*
X0098815Y0104367D01*
X0099013Y0104550D01*
X0099215Y0104729D01*
X0099422Y0104903D01*
X0099632Y0105072D01*
X0099847Y0105235D01*
X0100066Y0105393D01*
X0100289Y0105546D01*
X0100515Y0105693D01*
X0100745Y0105835D01*
X0100978Y0105971D01*
X0101215Y0106101D01*
X0101454Y0106225D01*
X0101697Y0106344D01*
X0101942Y0106456D01*
X0102190Y0106563D01*
X0102441Y0106663D01*
X0102694Y0106757D01*
X0102950Y0106845D01*
X0103207Y0106926D01*
X0103466Y0107002D01*
X0103727Y0107070D01*
X0103990Y0107133D01*
X0104254Y0107189D01*
X0104519Y0107238D01*
X0104786Y0107281D01*
X0105053Y0107317D01*
X0105322Y0107347D01*
X0105591Y0107370D01*
X0105860Y0107387D01*
X0106130Y0107397D01*
X0106400Y0107400D01*
X0106670Y0107397D01*
X0106940Y0107387D01*
X0107209Y0107370D01*
X0107478Y0107347D01*
X0107747Y0107317D01*
X0108014Y0107281D01*
X0108281Y0107238D01*
X0108546Y0107189D01*
X0108810Y0107133D01*
X0109073Y0107070D01*
X0109334Y0107002D01*
X0109593Y0106926D01*
X0109850Y0106845D01*
X0110106Y0106757D01*
X0110359Y0106663D01*
X0110610Y0106563D01*
X0110858Y0106456D01*
X0111103Y0106344D01*
X0111346Y0106225D01*
X0111585Y0106101D01*
X0111822Y0105971D01*
X0112055Y0105835D01*
X0112285Y0105693D01*
X0112511Y0105546D01*
X0112734Y0105393D01*
X0112953Y0105235D01*
X0113168Y0105072D01*
X0113378Y0104903D01*
X0113585Y0104729D01*
X0113787Y0104550D01*
X0113985Y0104367D01*
X0114178Y0104178D01*
X0114367Y0103985D01*
X0114550Y0103787D01*
X0114729Y0103585D01*
X0114903Y0103378D01*
X0115072Y0103168D01*
X0115235Y0102953D01*
X0115393Y0102734D01*
X0115546Y0102511D01*
X0115693Y0102285D01*
X0115835Y0102055D01*
X0115971Y0101822D01*
X0116101Y0101585D01*
X0116225Y0101346D01*
X0116344Y0101103D01*
X0116456Y0100858D01*
X0116563Y0100610D01*
X0116663Y0100359D01*
X0116757Y0100106D01*
X0116845Y0099850D01*
X0116926Y0099593D01*
X0117002Y0099334D01*
X0117070Y0099073D01*
X0117133Y0098810D01*
X0117189Y0098546D01*
X0117238Y0098281D01*
X0117281Y0098014D01*
X0117317Y0097747D01*
X0117347Y0097478D01*
X0117370Y0097209D01*
X0117387Y0096940D01*
X0117397Y0096670D01*
X0117400Y0096400D01*
X0117397Y0096130D01*
X0117387Y0095860D01*
X0117370Y0095591D01*
X0117347Y0095322D01*
X0117317Y0095053D01*
X0117281Y0094786D01*
X0117238Y0094519D01*
X0117189Y0094254D01*
X0117133Y0093990D01*
X0117070Y0093727D01*
X0117002Y0093466D01*
X0116926Y0093207D01*
X0116845Y0092950D01*
X0116757Y0092694D01*
X0116663Y0092441D01*
X0116563Y0092190D01*
X0116456Y0091942D01*
X0116344Y0091697D01*
X0116225Y0091454D01*
X0116101Y0091215D01*
X0115971Y0090978D01*
X0115835Y0090745D01*
X0115693Y0090515D01*
X0115546Y0090289D01*
X0115393Y0090066D01*
X0115235Y0089847D01*
X0115072Y0089632D01*
X0114903Y0089422D01*
X0114729Y0089215D01*
X0114550Y0089013D01*
X0114367Y0088815D01*
X0114178Y0088622D01*
X0113985Y0088433D01*
X0113787Y0088250D01*
X0113585Y0088071D01*
X0113378Y0087897D01*
X0113168Y0087728D01*
X0112953Y0087565D01*
X0112734Y0087407D01*
X0112511Y0087254D01*
X0112285Y0087107D01*
X0112055Y0086965D01*
X0111822Y0086829D01*
X0111585Y0086699D01*
X0111346Y0086575D01*
X0111103Y0086456D01*
X0110858Y0086344D01*
X0110610Y0086237D01*
X0110359Y0086137D01*
X0110106Y0086043D01*
X0109850Y0085955D01*
X0109593Y0085874D01*
X0109334Y0085798D01*
X0109073Y0085730D01*
X0108810Y0085667D01*
X0108546Y0085611D01*
X0108281Y0085562D01*
X0108014Y0085519D01*
X0107747Y0085483D01*
X0107478Y0085453D01*
X0107209Y0085430D01*
X0106940Y0085413D01*
X0106670Y0085403D01*
X0106400Y0085400D01*
X0106130Y0085403D01*
X0105860Y0085413D01*
X0105591Y0085430D01*
X0105322Y0085453D01*
X0105053Y0085483D01*
X0104786Y0085519D01*
X0104519Y0085562D01*
X0104254Y0085611D01*
X0103990Y0085667D01*
X0103727Y0085730D01*
X0103466Y0085798D01*
X0103207Y0085874D01*
X0102950Y0085955D01*
X0102694Y0086043D01*
X0102441Y0086137D01*
X0102190Y0086237D01*
X0101942Y0086344D01*
X0101697Y0086456D01*
X0101454Y0086575D01*
X0101215Y0086699D01*
X0100978Y0086829D01*
X0100745Y0086965D01*
X0100515Y0087107D01*
X0100289Y0087254D01*
X0100066Y0087407D01*
X0099847Y0087565D01*
X0099632Y0087728D01*
X0099422Y0087897D01*
X0099215Y0088071D01*
X0099013Y0088250D01*
X0098815Y0088433D01*
X0098622Y0088622D01*
X0098433Y0088815D01*
X0098250Y0089013D01*
X0098071Y0089215D01*
X0097897Y0089422D01*
X0097728Y0089632D01*
X0097565Y0089847D01*
X0097407Y0090066D01*
X0097254Y0090289D01*
X0097107Y0090515D01*
X0096965Y0090745D01*
X0096829Y0090978D01*
X0096699Y0091215D01*
X0096575Y0091454D01*
X0096456Y0091697D01*
X0096344Y0091942D01*
X0096237Y0092190D01*
X0096137Y0092441D01*
X0096043Y0092694D01*
X0095955Y0092950D01*
X0095874Y0093207D01*
X0095798Y0093466D01*
X0095730Y0093727D01*
X0095667Y0093990D01*
X0095611Y0094254D01*
X0095562Y0094519D01*
X0095519Y0094786D01*
X0095483Y0095053D01*
X0095453Y0095322D01*
X0095430Y0095591D01*
X0095413Y0095860D01*
X0095403Y0096130D01*
X0095400Y0096400D01*
X0099900Y0099900D02*
X0099900Y0101400D01*
X0099900Y0102900D01*
X0099900Y0101400D02*
X0101400Y0101400D01*
X0099900Y0101400D02*
X0098400Y0101400D01*
X0110384Y0011100D02*
X0110384Y0007897D01*
X0111452Y0006830D01*
X0114655Y0006830D01*
X0114655Y0011100D01*
X0116830Y0010032D02*
X0116830Y0005762D01*
X0117897Y0004695D01*
X0120032Y0004695D01*
X0121100Y0005762D01*
X0121100Y0010032D01*
X0120032Y0011100D01*
X0117897Y0011100D01*
X0116830Y0010032D01*
D18*
X0121912Y0019471D02*
X0124865Y0019471D01*
X0124865Y0053329D01*
X0121912Y0053329D01*
X0111282Y0053329D02*
X0107935Y0053329D01*
X0107935Y0019471D01*
X0110888Y0019471D01*
X0137731Y0052434D02*
X0137434Y0052731D01*
X0137211Y0053086D01*
X0137072Y0053483D01*
X0137025Y0053900D01*
X0137072Y0054317D01*
X0137211Y0054714D01*
X0137434Y0055069D01*
X0137731Y0055366D01*
X0138086Y0055589D01*
X0138483Y0055728D01*
X0138900Y0055775D01*
X0139317Y0055728D01*
X0139714Y0055589D01*
X0140069Y0055366D01*
X0140366Y0055069D01*
X0140589Y0054714D01*
X0140728Y0054317D01*
X0140775Y0053900D01*
X0140728Y0053483D01*
X0140589Y0053086D01*
X0140366Y0052731D01*
X0140069Y0052434D01*
X0139714Y0052211D01*
X0139317Y0052072D01*
X0138900Y0052025D01*
X0138483Y0052072D01*
X0138086Y0052211D01*
X0137731Y0052434D01*
X0138003Y0052263D02*
X0139797Y0052263D01*
X0140385Y0052762D02*
X0137415Y0052762D01*
X0137150Y0053260D02*
X0140650Y0053260D01*
X0140759Y0053759D02*
X0137041Y0053759D01*
X0137065Y0054257D02*
X0140735Y0054257D01*
X0140563Y0054756D02*
X0137237Y0054756D01*
X0137619Y0055254D02*
X0140181Y0055254D01*
X0139099Y0055753D02*
X0138701Y0055753D01*
X0133650Y0071442D02*
X0129146Y0071442D01*
X0129146Y0073694D01*
X0129897Y0074445D01*
X0131398Y0074445D01*
X0132149Y0073694D01*
X0132149Y0071442D01*
X0132149Y0072943D02*
X0133650Y0074445D01*
X0132899Y0076046D02*
X0133650Y0076797D01*
X0133650Y0078298D01*
X0132899Y0079049D01*
X0132149Y0079049D01*
X0131398Y0078298D01*
X0131398Y0077547D01*
X0131398Y0078298D02*
X0130647Y0079049D01*
X0129897Y0079049D01*
X0129146Y0078298D01*
X0129146Y0076797D01*
X0129897Y0076046D01*
X0144146Y0075402D02*
X0144146Y0073150D01*
X0148650Y0073150D01*
X0147149Y0073150D02*
X0147149Y0075402D01*
X0146398Y0076153D01*
X0144897Y0076153D01*
X0144146Y0075402D01*
X0147149Y0074651D02*
X0148650Y0076153D01*
X0146398Y0077754D02*
X0146398Y0080756D01*
X0144146Y0080006D02*
X0146398Y0077754D01*
X0148650Y0080006D02*
X0144146Y0080006D01*
X0159146Y0080756D02*
X0159146Y0077754D01*
X0161398Y0077754D01*
X0160647Y0079255D01*
X0160647Y0080006D01*
X0161398Y0080756D01*
X0162899Y0080756D01*
X0163650Y0080006D01*
X0163650Y0078505D01*
X0162899Y0077754D01*
X0163650Y0076153D02*
X0162149Y0074651D01*
X0162149Y0075402D02*
X0162149Y0073150D01*
X0163650Y0073150D02*
X0159146Y0073150D01*
X0159146Y0075402D01*
X0159897Y0076153D01*
X0161398Y0076153D01*
X0162149Y0075402D01*
X0125650Y0101397D02*
X0124899Y0100646D01*
X0123398Y0100646D01*
X0122647Y0101397D01*
X0121046Y0102147D02*
X0119545Y0100646D01*
X0119545Y0105150D01*
X0121046Y0105150D02*
X0118044Y0105150D01*
X0122647Y0104399D02*
X0123398Y0105150D01*
X0124899Y0105150D01*
X0125650Y0104399D01*
X0125650Y0101397D01*
X0078650Y0098549D02*
X0078650Y0095546D01*
X0075647Y0098549D01*
X0074897Y0098549D01*
X0074146Y0097798D01*
X0074146Y0096297D01*
X0074897Y0095546D01*
X0074897Y0093945D02*
X0076398Y0093945D01*
X0077149Y0093194D01*
X0077149Y0090942D01*
X0078650Y0090942D02*
X0074146Y0090942D01*
X0074146Y0093194D01*
X0074897Y0093945D01*
X0077149Y0092443D02*
X0078650Y0093945D01*
X0063650Y0093150D02*
X0059146Y0093150D01*
X0059146Y0095402D01*
X0059897Y0096153D01*
X0061398Y0096153D01*
X0062149Y0095402D01*
X0062149Y0093150D01*
X0062149Y0094651D02*
X0063650Y0096153D01*
X0063650Y0097754D02*
X0063650Y0100756D01*
X0063650Y0099255D02*
X0059146Y0099255D01*
X0060647Y0097754D01*
X0245150Y0058900D02*
X0245150Y0053900D01*
X0248900Y0056400D01*
X0245150Y0058900D01*
X0245150Y0058744D02*
X0245384Y0058744D01*
X0245150Y0058245D02*
X0246132Y0058245D01*
X0246880Y0057747D02*
X0245150Y0057747D01*
X0245150Y0057248D02*
X0247628Y0057248D01*
X0248376Y0056750D02*
X0245150Y0056750D01*
X0245150Y0056251D02*
X0248677Y0056251D01*
X0247929Y0055753D02*
X0245150Y0055753D01*
X0245150Y0055254D02*
X0247181Y0055254D01*
X0246433Y0054756D02*
X0245150Y0054756D01*
X0245150Y0054257D02*
X0245686Y0054257D01*
X0288940Y0053650D02*
X0291942Y0053650D01*
X0290441Y0053650D02*
X0290441Y0049146D01*
X0291942Y0050647D01*
X0295045Y0049146D02*
X0295045Y0053650D01*
X0296546Y0053650D02*
X0293544Y0053650D01*
X0296546Y0050647D02*
X0295045Y0049146D01*
X0298147Y0049897D02*
X0298147Y0051398D01*
X0298898Y0052149D01*
X0301150Y0052149D01*
X0301150Y0053650D02*
X0301150Y0049146D01*
X0298898Y0049146D01*
X0298147Y0049897D01*
X0299649Y0052149D02*
X0298147Y0053650D01*
X0298898Y0059146D02*
X0298147Y0059897D01*
X0298147Y0061398D01*
X0298898Y0062149D01*
X0301150Y0062149D01*
X0301150Y0063650D02*
X0301150Y0059146D01*
X0298898Y0059146D01*
X0296546Y0060647D02*
X0295045Y0059146D01*
X0295045Y0063650D01*
X0296546Y0063650D02*
X0293544Y0063650D01*
X0291942Y0062899D02*
X0288940Y0059897D01*
X0288940Y0062899D01*
X0289690Y0063650D01*
X0291192Y0063650D01*
X0291942Y0062899D01*
X0291942Y0059897D01*
X0291192Y0059146D01*
X0289690Y0059146D01*
X0288940Y0059897D01*
X0298147Y0063650D02*
X0299649Y0062149D01*
X0299650Y0069146D02*
X0297398Y0069146D01*
X0296647Y0069897D01*
X0296647Y0071398D01*
X0297398Y0072149D01*
X0299650Y0072149D01*
X0299650Y0073650D02*
X0299650Y0069146D01*
X0295046Y0069897D02*
X0295046Y0070647D01*
X0294295Y0071398D01*
X0292044Y0071398D01*
X0292044Y0072899D02*
X0292044Y0069897D01*
X0292794Y0069146D01*
X0294295Y0069146D01*
X0295046Y0069897D01*
X0298149Y0072149D02*
X0296647Y0073650D01*
X0295046Y0072899D02*
X0294295Y0073650D01*
X0292794Y0073650D01*
X0292044Y0072899D01*
X0292794Y0079146D02*
X0292044Y0079897D01*
X0292044Y0080647D01*
X0292794Y0081398D01*
X0294295Y0081398D01*
X0295046Y0080647D01*
X0295046Y0079897D01*
X0294295Y0079146D01*
X0292794Y0079146D01*
X0296647Y0079897D02*
X0296647Y0081398D01*
X0297398Y0082149D01*
X0299650Y0082149D01*
X0298149Y0082149D02*
X0296647Y0083650D01*
X0295046Y0082899D02*
X0294295Y0083650D01*
X0292794Y0083650D01*
X0292044Y0082899D01*
X0292044Y0082149D01*
X0292794Y0081398D01*
X0294295Y0081398D02*
X0295046Y0082149D01*
X0295046Y0082899D01*
X0299650Y0083650D02*
X0299650Y0079146D01*
X0297398Y0079146D01*
X0296647Y0079897D01*
X0297398Y0089146D02*
X0296647Y0089897D01*
X0296647Y0091398D01*
X0297398Y0092149D01*
X0299650Y0092149D01*
X0299650Y0093650D02*
X0299650Y0089146D01*
X0297398Y0089146D01*
X0295046Y0089146D02*
X0292044Y0089146D01*
X0292044Y0089897D01*
X0295046Y0092899D01*
X0295046Y0093650D01*
X0296647Y0093650D02*
X0298149Y0092149D01*
X0297398Y0099146D02*
X0296647Y0099897D01*
X0296647Y0101398D01*
X0297398Y0102149D01*
X0299650Y0102149D01*
X0299650Y0103650D02*
X0299650Y0099146D01*
X0297398Y0099146D01*
X0295046Y0101398D02*
X0292794Y0101398D01*
X0292044Y0102149D01*
X0292044Y0102899D01*
X0292794Y0103650D01*
X0294295Y0103650D01*
X0295046Y0102899D01*
X0295046Y0101398D01*
X0293545Y0099897D01*
X0292044Y0099146D01*
X0296647Y0103650D02*
X0298149Y0102149D01*
X0268900Y0106400D02*
X0268900Y0006400D01*
X0288940Y0009146D02*
X0291942Y0009146D01*
X0291942Y0011398D01*
X0290441Y0010647D01*
X0289690Y0010647D01*
X0288940Y0011398D01*
X0288940Y0012899D01*
X0289690Y0013650D01*
X0291192Y0013650D01*
X0291942Y0012899D01*
X0293544Y0013650D02*
X0296546Y0013650D01*
X0295045Y0013650D02*
X0295045Y0009146D01*
X0296546Y0010647D01*
X0298147Y0009897D02*
X0298898Y0009146D01*
X0301150Y0009146D01*
X0301150Y0013650D01*
X0299649Y0012149D02*
X0298147Y0013650D01*
X0298898Y0012149D02*
X0301150Y0012149D01*
X0298898Y0012149D02*
X0298147Y0011398D01*
X0298147Y0009897D01*
X0298898Y0019146D02*
X0298147Y0019897D01*
X0298147Y0021398D01*
X0298898Y0022149D01*
X0301150Y0022149D01*
X0301150Y0023650D02*
X0301150Y0019146D01*
X0298898Y0019146D01*
X0296546Y0020647D02*
X0295045Y0019146D01*
X0295045Y0023650D01*
X0296546Y0023650D02*
X0293544Y0023650D01*
X0289690Y0023650D02*
X0289690Y0019146D01*
X0291942Y0021398D01*
X0288940Y0021398D01*
X0298147Y0023650D02*
X0299649Y0022149D01*
X0298898Y0029146D02*
X0298147Y0029897D01*
X0298147Y0031398D01*
X0298898Y0032149D01*
X0301150Y0032149D01*
X0301150Y0033650D02*
X0301150Y0029146D01*
X0298898Y0029146D01*
X0296546Y0030647D02*
X0295045Y0029146D01*
X0295045Y0033650D01*
X0296546Y0033650D02*
X0293544Y0033650D01*
X0291942Y0032899D02*
X0291192Y0033650D01*
X0289690Y0033650D01*
X0288940Y0032899D01*
X0288940Y0032149D01*
X0289690Y0031398D01*
X0290441Y0031398D01*
X0289690Y0031398D02*
X0288940Y0030647D01*
X0288940Y0029897D01*
X0289690Y0029146D01*
X0291192Y0029146D01*
X0291942Y0029897D01*
X0298147Y0033650D02*
X0299649Y0032149D01*
X0298898Y0039146D02*
X0298147Y0039897D01*
X0298147Y0041398D01*
X0298898Y0042149D01*
X0301150Y0042149D01*
X0301150Y0043650D02*
X0301150Y0039146D01*
X0298898Y0039146D01*
X0296546Y0040647D02*
X0295045Y0039146D01*
X0295045Y0043650D01*
X0296546Y0043650D02*
X0293544Y0043650D01*
X0291942Y0043650D02*
X0288940Y0040647D01*
X0288940Y0039897D01*
X0289690Y0039146D01*
X0291192Y0039146D01*
X0291942Y0039897D01*
X0298147Y0043650D02*
X0299649Y0042149D01*
X0291942Y0043650D02*
X0288940Y0043650D01*
D19*
X0236400Y0108900D03*
D20*
X0201050Y0057850D02*
X0198948Y0057850D01*
X0199999Y0057850D02*
X0199999Y0051545D01*
X0201050Y0051545D02*
X0198948Y0051545D01*
X0196753Y0052596D02*
X0196753Y0056799D01*
X0195702Y0057850D01*
X0193600Y0057850D01*
X0192549Y0056799D01*
X0190308Y0057850D02*
X0186104Y0057850D01*
X0188206Y0057850D02*
X0188206Y0051545D01*
X0190308Y0053646D01*
X0192549Y0052596D02*
X0193600Y0051545D01*
X0195702Y0051545D01*
X0196753Y0052596D01*
D21*
X0154933Y0033133D02*
X0154316Y0033750D01*
X0153082Y0033750D01*
X0152464Y0033133D01*
X0152464Y0030047D01*
X0151250Y0031281D02*
X0150016Y0030047D01*
X0150016Y0033750D01*
X0151250Y0033750D02*
X0148781Y0033750D01*
X0154933Y0033133D02*
X0154933Y0030047D01*
D22*
X0116203Y0059431D02*
X0116205Y0059470D01*
X0116211Y0059509D01*
X0116221Y0059547D01*
X0116234Y0059584D01*
X0116251Y0059619D01*
X0116271Y0059653D01*
X0116295Y0059684D01*
X0116322Y0059713D01*
X0116351Y0059739D01*
X0116383Y0059762D01*
X0116417Y0059782D01*
X0116453Y0059798D01*
X0116490Y0059810D01*
X0116529Y0059819D01*
X0116568Y0059824D01*
X0116607Y0059825D01*
X0116646Y0059822D01*
X0116685Y0059815D01*
X0116722Y0059804D01*
X0116759Y0059790D01*
X0116794Y0059772D01*
X0116827Y0059751D01*
X0116858Y0059726D01*
X0116886Y0059699D01*
X0116911Y0059669D01*
X0116933Y0059636D01*
X0116952Y0059602D01*
X0116967Y0059566D01*
X0116979Y0059528D01*
X0116987Y0059490D01*
X0116991Y0059451D01*
X0116991Y0059411D01*
X0116987Y0059372D01*
X0116979Y0059334D01*
X0116967Y0059296D01*
X0116952Y0059260D01*
X0116933Y0059226D01*
X0116911Y0059193D01*
X0116886Y0059163D01*
X0116858Y0059136D01*
X0116827Y0059111D01*
X0116794Y0059090D01*
X0116759Y0059072D01*
X0116722Y0059058D01*
X0116685Y0059047D01*
X0116646Y0059040D01*
X0116607Y0059037D01*
X0116568Y0059038D01*
X0116529Y0059043D01*
X0116490Y0059052D01*
X0116453Y0059064D01*
X0116417Y0059080D01*
X0116383Y0059100D01*
X0116351Y0059123D01*
X0116322Y0059149D01*
X0116295Y0059178D01*
X0116271Y0059209D01*
X0116251Y0059243D01*
X0116234Y0059278D01*
X0116221Y0059315D01*
X0116211Y0059353D01*
X0116205Y0059392D01*
X0116203Y0059431D01*
D23*
X0113447Y0052542D02*
X0113449Y0052650D01*
X0113455Y0052759D01*
X0113465Y0052867D01*
X0113479Y0052974D01*
X0113497Y0053081D01*
X0113518Y0053188D01*
X0113544Y0053293D01*
X0113574Y0053398D01*
X0113607Y0053501D01*
X0113644Y0053603D01*
X0113685Y0053703D01*
X0113729Y0053802D01*
X0113778Y0053900D01*
X0113829Y0053995D01*
X0113884Y0054088D01*
X0113943Y0054180D01*
X0114005Y0054269D01*
X0114070Y0054356D01*
X0114138Y0054440D01*
X0114209Y0054522D01*
X0114283Y0054601D01*
X0114360Y0054677D01*
X0114440Y0054751D01*
X0114523Y0054821D01*
X0114608Y0054889D01*
X0114695Y0054953D01*
X0114785Y0055014D01*
X0114877Y0055072D01*
X0114971Y0055126D01*
X0115067Y0055177D01*
X0115164Y0055224D01*
X0115264Y0055268D01*
X0115365Y0055308D01*
X0115467Y0055344D01*
X0115570Y0055376D01*
X0115675Y0055405D01*
X0115781Y0055429D01*
X0115887Y0055450D01*
X0115994Y0055467D01*
X0116102Y0055480D01*
X0116210Y0055489D01*
X0116319Y0055494D01*
X0116427Y0055495D01*
X0116536Y0055492D01*
X0116644Y0055485D01*
X0116752Y0055474D01*
X0116859Y0055459D01*
X0116966Y0055440D01*
X0117072Y0055417D01*
X0117177Y0055391D01*
X0117282Y0055360D01*
X0117384Y0055326D01*
X0117486Y0055288D01*
X0117586Y0055246D01*
X0117685Y0055201D01*
X0117782Y0055152D01*
X0117876Y0055099D01*
X0117969Y0055043D01*
X0118060Y0054984D01*
X0118149Y0054921D01*
X0118235Y0054856D01*
X0118319Y0054787D01*
X0118400Y0054715D01*
X0118478Y0054640D01*
X0118554Y0054562D01*
X0118627Y0054481D01*
X0118697Y0054398D01*
X0118763Y0054313D01*
X0118827Y0054225D01*
X0118887Y0054134D01*
X0118944Y0054042D01*
X0118997Y0053947D01*
X0119047Y0053851D01*
X0119093Y0053753D01*
X0119136Y0053653D01*
X0119175Y0053552D01*
X0119210Y0053449D01*
X0119242Y0053346D01*
X0119269Y0053241D01*
X0119293Y0053135D01*
X0119313Y0053028D01*
X0119329Y0052921D01*
X0119341Y0052813D01*
X0119349Y0052705D01*
X0119353Y0052596D01*
X0119353Y0052488D01*
X0119349Y0052379D01*
X0119341Y0052271D01*
X0119329Y0052163D01*
X0119313Y0052056D01*
X0119293Y0051949D01*
X0119269Y0051843D01*
X0119242Y0051738D01*
X0119210Y0051635D01*
X0119175Y0051532D01*
X0119136Y0051431D01*
X0119093Y0051331D01*
X0119047Y0051233D01*
X0118997Y0051137D01*
X0118944Y0051042D01*
X0118887Y0050950D01*
X0118827Y0050859D01*
X0118763Y0050771D01*
X0118697Y0050686D01*
X0118627Y0050603D01*
X0118554Y0050522D01*
X0118478Y0050444D01*
X0118400Y0050369D01*
X0118319Y0050297D01*
X0118235Y0050228D01*
X0118149Y0050163D01*
X0118060Y0050100D01*
X0117969Y0050041D01*
X0117877Y0049985D01*
X0117782Y0049932D01*
X0117685Y0049883D01*
X0117586Y0049838D01*
X0117486Y0049796D01*
X0117384Y0049758D01*
X0117282Y0049724D01*
X0117177Y0049693D01*
X0117072Y0049667D01*
X0116966Y0049644D01*
X0116859Y0049625D01*
X0116752Y0049610D01*
X0116644Y0049599D01*
X0116536Y0049592D01*
X0116427Y0049589D01*
X0116319Y0049590D01*
X0116210Y0049595D01*
X0116102Y0049604D01*
X0115994Y0049617D01*
X0115887Y0049634D01*
X0115781Y0049655D01*
X0115675Y0049679D01*
X0115570Y0049708D01*
X0115467Y0049740D01*
X0115365Y0049776D01*
X0115264Y0049816D01*
X0115164Y0049860D01*
X0115067Y0049907D01*
X0114971Y0049958D01*
X0114877Y0050012D01*
X0114785Y0050070D01*
X0114695Y0050131D01*
X0114608Y0050195D01*
X0114523Y0050263D01*
X0114440Y0050333D01*
X0114360Y0050407D01*
X0114283Y0050483D01*
X0114209Y0050562D01*
X0114138Y0050644D01*
X0114070Y0050728D01*
X0114005Y0050815D01*
X0113943Y0050904D01*
X0113884Y0050996D01*
X0113829Y0051089D01*
X0113778Y0051184D01*
X0113729Y0051282D01*
X0113685Y0051381D01*
X0113644Y0051481D01*
X0113607Y0051583D01*
X0113574Y0051686D01*
X0113544Y0051791D01*
X0113518Y0051896D01*
X0113497Y0052003D01*
X0113479Y0052110D01*
X0113465Y0052217D01*
X0113455Y0052325D01*
X0113449Y0052434D01*
X0113447Y0052542D01*
X0113447Y0020258D02*
X0113449Y0020366D01*
X0113455Y0020475D01*
X0113465Y0020583D01*
X0113479Y0020690D01*
X0113497Y0020797D01*
X0113518Y0020904D01*
X0113544Y0021009D01*
X0113574Y0021114D01*
X0113607Y0021217D01*
X0113644Y0021319D01*
X0113685Y0021419D01*
X0113729Y0021518D01*
X0113778Y0021616D01*
X0113829Y0021711D01*
X0113884Y0021804D01*
X0113943Y0021896D01*
X0114005Y0021985D01*
X0114070Y0022072D01*
X0114138Y0022156D01*
X0114209Y0022238D01*
X0114283Y0022317D01*
X0114360Y0022393D01*
X0114440Y0022467D01*
X0114523Y0022537D01*
X0114608Y0022605D01*
X0114695Y0022669D01*
X0114785Y0022730D01*
X0114877Y0022788D01*
X0114971Y0022842D01*
X0115067Y0022893D01*
X0115164Y0022940D01*
X0115264Y0022984D01*
X0115365Y0023024D01*
X0115467Y0023060D01*
X0115570Y0023092D01*
X0115675Y0023121D01*
X0115781Y0023145D01*
X0115887Y0023166D01*
X0115994Y0023183D01*
X0116102Y0023196D01*
X0116210Y0023205D01*
X0116319Y0023210D01*
X0116427Y0023211D01*
X0116536Y0023208D01*
X0116644Y0023201D01*
X0116752Y0023190D01*
X0116859Y0023175D01*
X0116966Y0023156D01*
X0117072Y0023133D01*
X0117177Y0023107D01*
X0117282Y0023076D01*
X0117384Y0023042D01*
X0117486Y0023004D01*
X0117586Y0022962D01*
X0117685Y0022917D01*
X0117782Y0022868D01*
X0117876Y0022815D01*
X0117969Y0022759D01*
X0118060Y0022700D01*
X0118149Y0022637D01*
X0118235Y0022572D01*
X0118319Y0022503D01*
X0118400Y0022431D01*
X0118478Y0022356D01*
X0118554Y0022278D01*
X0118627Y0022197D01*
X0118697Y0022114D01*
X0118763Y0022029D01*
X0118827Y0021941D01*
X0118887Y0021850D01*
X0118944Y0021758D01*
X0118997Y0021663D01*
X0119047Y0021567D01*
X0119093Y0021469D01*
X0119136Y0021369D01*
X0119175Y0021268D01*
X0119210Y0021165D01*
X0119242Y0021062D01*
X0119269Y0020957D01*
X0119293Y0020851D01*
X0119313Y0020744D01*
X0119329Y0020637D01*
X0119341Y0020529D01*
X0119349Y0020421D01*
X0119353Y0020312D01*
X0119353Y0020204D01*
X0119349Y0020095D01*
X0119341Y0019987D01*
X0119329Y0019879D01*
X0119313Y0019772D01*
X0119293Y0019665D01*
X0119269Y0019559D01*
X0119242Y0019454D01*
X0119210Y0019351D01*
X0119175Y0019248D01*
X0119136Y0019147D01*
X0119093Y0019047D01*
X0119047Y0018949D01*
X0118997Y0018853D01*
X0118944Y0018758D01*
X0118887Y0018666D01*
X0118827Y0018575D01*
X0118763Y0018487D01*
X0118697Y0018402D01*
X0118627Y0018319D01*
X0118554Y0018238D01*
X0118478Y0018160D01*
X0118400Y0018085D01*
X0118319Y0018013D01*
X0118235Y0017944D01*
X0118149Y0017879D01*
X0118060Y0017816D01*
X0117969Y0017757D01*
X0117877Y0017701D01*
X0117782Y0017648D01*
X0117685Y0017599D01*
X0117586Y0017554D01*
X0117486Y0017512D01*
X0117384Y0017474D01*
X0117282Y0017440D01*
X0117177Y0017409D01*
X0117072Y0017383D01*
X0116966Y0017360D01*
X0116859Y0017341D01*
X0116752Y0017326D01*
X0116644Y0017315D01*
X0116536Y0017308D01*
X0116427Y0017305D01*
X0116319Y0017306D01*
X0116210Y0017311D01*
X0116102Y0017320D01*
X0115994Y0017333D01*
X0115887Y0017350D01*
X0115781Y0017371D01*
X0115675Y0017395D01*
X0115570Y0017424D01*
X0115467Y0017456D01*
X0115365Y0017492D01*
X0115264Y0017532D01*
X0115164Y0017576D01*
X0115067Y0017623D01*
X0114971Y0017674D01*
X0114877Y0017728D01*
X0114785Y0017786D01*
X0114695Y0017847D01*
X0114608Y0017911D01*
X0114523Y0017979D01*
X0114440Y0018049D01*
X0114360Y0018123D01*
X0114283Y0018199D01*
X0114209Y0018278D01*
X0114138Y0018360D01*
X0114070Y0018444D01*
X0114005Y0018531D01*
X0113943Y0018620D01*
X0113884Y0018712D01*
X0113829Y0018805D01*
X0113778Y0018900D01*
X0113729Y0018998D01*
X0113685Y0019097D01*
X0113644Y0019197D01*
X0113607Y0019299D01*
X0113574Y0019402D01*
X0113544Y0019507D01*
X0113518Y0019612D01*
X0113497Y0019719D01*
X0113479Y0019826D01*
X0113465Y0019933D01*
X0113455Y0020041D01*
X0113449Y0020150D01*
X0113447Y0020258D01*
D24*
X0121322Y0022679D02*
X0121690Y0022311D01*
X0122057Y0022311D01*
X0122424Y0022679D01*
X0122424Y0023414D01*
X0122792Y0023781D01*
X0123159Y0023781D01*
X0123527Y0023414D01*
X0123527Y0022679D01*
X0123159Y0022311D01*
X0121322Y0022679D02*
X0121322Y0023414D01*
X0121690Y0023781D01*
X0122057Y0024524D02*
X0121322Y0025259D01*
X0123527Y0025259D01*
X0123527Y0025993D02*
X0123527Y0024524D01*
M02*
